mtllib ./Map1.mtl
g Cube
v 8.981 -0.47 -3.042839
v 9.230673 -0.47 -3.209162
v 8.981 2.53 -3.042839
v 9.230673 2.53 -3.209162
v 7.594977 2.53 -5.12345
v 7.844651 2.53 -5.289773
v 7.594977 -0.47 -5.12345
v 7.844651 -0.47 -5.289773
v 8.981 2.53 -3.042839
v 9.230673 2.53 -3.209162
v 7.594977 2.53 -5.12345
v 7.844651 2.53 -5.289773
v 7.594977 -0.47 -5.12345
v 8.981 -0.47 -3.042839
v 9.230673 -0.47 -3.209162
v 7.844651 -0.47 -5.289773
v 9.230673 -0.47 -3.209162
v 9.230673 2.53 -3.209162
v 7.844651 2.53 -5.289773
v 7.844651 -0.47 -5.289773
v 7.594977 -0.47 -5.12345
v 7.594977 2.53 -5.12345
v 8.981 2.53 -3.042839
v 8.981 -0.47 -3.042839

vn 0.5544088 0 0.8322445
vn 0.5544088 0 0.8322445
vn 0.5544088 0 0.8322445
vn 0.5544088 0 0.8322445
vn 0 1 0
vn 0 1 0
vn -0.5544088 0 -0.8322445
vn -0.5544088 0 -0.8322445
vn 0 1 0
vn 0 1 0
vn -0.5544088 0 -0.8322445
vn -0.5544088 0 -0.8322445
vn 0 -1 0
vn 0 -1 0
vn 0 -1 0
vn 0 -1 0
vn 0.8322445 0 -0.5544088
vn 0.8322445 0 -0.5544088
vn 0.8322445 0 -0.5544088
vn 0.8322445 0 -0.5544088
vn -0.8322445 0 0.5544088
vn -0.8322445 0 0.5544088
vn -0.8322445 0 0.5544088
vn -0.8322445 0 0.5544088

vt 0 0
vt 1 0
vt 0 1
vt 1 1
vt 0 1
vt 1 1
vt 0 1
vt 1 1
vt 0 0
vt 1 0
vt 0 0
vt 1 0
vt 0 0
vt 0 1
vt 1 1
vt 1 0
vt 0 0
vt 0 1
vt 1 1
vt 1 0
vt 0 0
vt 0 1
vt 1 1
vt 1 0

usemtl Lit
usemap Lit
f 3/3/3 1/1/1 4/4/4
f 4/4/4 1/1/1 2/2/2
f 5/5/5 9/9/9 6/6/6
f 6/6/6 9/9/9 10/10/10
f 7/7/7 11/11/11 8/8/8
f 8/8/8 11/11/11 12/12/12
f 14/14/14 13/13/13 15/15/15
f 15/15/15 13/13/13 16/16/16
f 18/18/18 17/17/17 19/19/19
f 19/19/19 17/17/17 20/20/20
f 22/22/22 21/21/21 23/23/23
f 23/23/23 21/21/21 24/24/24
mtllib ./Map1.mtl
g Cube
v -2.399 -0.47 -3.012839
v -2.149327 -0.47 -3.179162
v -2.399 2.53 -3.012839
v -2.149327 2.53 -3.179162
v -3.785023 2.53 -5.093451
v -3.535349 2.53 -5.259773
v -3.785023 -0.47 -5.093451
v -3.535349 -0.47 -5.259773
v -2.399 2.53 -3.012839
v -2.149327 2.53 -3.179162
v -3.785023 2.53 -5.093451
v -3.535349 2.53 -5.259773
v -3.785023 -0.47 -5.093451
v -2.399 -0.47 -3.012839
v -2.149327 -0.47 -3.179162
v -3.535349 -0.47 -5.259773
v -2.149327 -0.47 -3.179162
v -2.149327 2.53 -3.179162
v -3.535349 2.53 -5.259773
v -3.535349 -0.47 -5.259773
v -3.785023 -0.47 -5.093451
v -3.785023 2.53 -5.093451
v -2.399 2.53 -3.012839
v -2.399 -0.47 -3.012839

vn 0.5544088 0 0.8322445
vn 0.5544088 0 0.8322445
vn 0.5544088 0 0.8322445
vn 0.5544088 0 0.8322445
vn 0 1 0
vn 0 1 0
vn -0.5544088 0 -0.8322445
vn -0.5544088 0 -0.8322445
vn 0 1 0
vn 0 1 0
vn -0.5544088 0 -0.8322445
vn -0.5544088 0 -0.8322445
vn 0 -1 0
vn 0 -1 0
vn 0 -1 0
vn 0 -1 0
vn 0.8322445 0 -0.5544088
vn 0.8322445 0 -0.5544088
vn 0.8322445 0 -0.5544088
vn 0.8322445 0 -0.5544088
vn -0.8322445 0 0.5544088
vn -0.8322445 0 0.5544088
vn -0.8322445 0 0.5544088
vn -0.8322445 0 0.5544088

vt 0 0
vt 1 0
vt 0 1
vt 1 1
vt 0 1
vt 1 1
vt 0 1
vt 1 1
vt 0 0
vt 1 0
vt 0 0
vt 1 0
vt 0 0
vt 0 1
vt 1 1
vt 1 0
vt 0 0
vt 0 1
vt 1 1
vt 1 0
vt 0 0
vt 0 1
vt 1 1
vt 1 0

usemtl Lit
usemap Lit
f 27/27/27 25/25/25 28/28/28
f 28/28/28 25/25/25 26/26/26
f 29/29/29 33/33/33 30/30/30
f 30/30/30 33/33/33 34/34/34
f 31/31/31 35/35/35 32/32/32
f 32/32/32 35/35/35 36/36/36
f 38/38/38 37/37/37 39/39/39
f 39/39/39 37/37/37 40/40/40
f 42/42/42 41/41/41 43/43/43
f 43/43/43 41/41/41 44/44/44
f 46/46/46 45/45/45 47/47/47
f 47/47/47 45/45/45 48/48/48
mtllib ./Map1.mtl
g Cube
v 20.05482 -0.14 0.4646937
v 20.60482 -0.14 0.4646937
v 20.05482 2.86 0.4646937
v 20.60482 2.86 0.4646937
v 20.05482 2.86 -0.2353063
v 20.60482 2.86 -0.2353063
v 20.05482 -0.14 -0.2353063
v 20.60482 -0.14 -0.2353063
v 20.05482 2.86 0.4646937
v 20.60482 2.86 0.4646937
v 20.05482 2.86 -0.2353063
v 20.60482 2.86 -0.2353063
v 20.05482 -0.14 -0.2353063
v 20.05482 -0.14 0.4646937
v 20.60482 -0.14 0.4646937
v 20.60482 -0.14 -0.2353063
v 20.60482 -0.14 0.4646937
v 20.60482 2.86 0.4646937
v 20.60482 2.86 -0.2353063
v 20.60482 -0.14 -0.2353063
v 20.05482 -0.14 -0.2353063
v 20.05482 2.86 -0.2353063
v 20.05482 2.86 0.4646937
v 20.05482 -0.14 0.4646937

vn 0 0 1
vn 0 0 1
vn 0 0 1
vn 0 0 1
vn 0 1 0
vn 0 1 0
vn 0 0 -1
vn 0 0 -1
vn 0 1 0
vn 0 1 0
vn 0 0 -1
vn 0 0 -1
vn 0 -1 0
vn 0 -1 0
vn 0 -1 0
vn 0 -1 0
vn 1 0 0
vn 1 0 0
vn 1 0 0
vn 1 0 0
vn -1 0 0
vn -1 0 0
vn -1 0 0
vn -1 0 0

vt 0 0
vt 1 0
vt 0 1
vt 1 1
vt 0 1
vt 1 1
vt 0 1
vt 1 1
vt 0 0
vt 1 0
vt 0 0
vt 1 0
vt 0 0
vt 0 1
vt 1 1
vt 1 0
vt 0 0
vt 0 1
vt 1 1
vt 1 0
vt 0 0
vt 0 1
vt 1 1
vt 1 0

usemtl Lit
usemap Lit
f 51/51/51 49/49/49 52/52/52
f 52/52/52 49/49/49 50/50/50
f 53/53/53 57/57/57 54/54/54
f 54/54/54 57/57/57 58/58/58
f 55/55/55 59/59/59 56/56/56
f 56/56/56 59/59/59 60/60/60
f 62/62/62 61/61/61 63/63/63
f 63/63/63 61/61/61 64/64/64
f 66/66/66 65/65/65 67/67/67
f 67/67/67 65/65/65 68/68/68
f 70/70/70 69/69/69 71/71/71
f 71/71/71 69/69/69 72/72/72
mtllib ./Map1.mtl
g Cube
v 13.87983 -0.14 -0.005306244
v 14.37983 -0.14 -0.005306244
v 13.87983 2.86 -0.005306244
v 14.37983 2.86 -0.005306244
v 13.87983 2.86 -0.7053063
v 14.37983 2.86 -0.7053063
v 13.87983 -0.14 -0.7053063
v 14.37983 -0.14 -0.7053063
v 13.87983 2.86 -0.005306244
v 14.37983 2.86 -0.005306244
v 13.87983 2.86 -0.7053063
v 14.37983 2.86 -0.7053063
v 13.87983 -0.14 -0.7053063
v 13.87983 -0.14 -0.005306244
v 14.37983 -0.14 -0.005306244
v 14.37983 -0.14 -0.7053063
v 14.37983 -0.14 -0.005306244
v 14.37983 2.86 -0.005306244
v 14.37983 2.86 -0.7053063
v 14.37983 -0.14 -0.7053063
v 13.87983 -0.14 -0.7053063
v 13.87983 2.86 -0.7053063
v 13.87983 2.86 -0.005306244
v 13.87983 -0.14 -0.005306244

vn 0 0 1
vn 0 0 1
vn 0 0 1
vn 0 0 1
vn 0 1 0
vn 0 1 0
vn 0 0 -1
vn 0 0 -1
vn 0 1 0
vn 0 1 0
vn 0 0 -1
vn 0 0 -1
vn 0 -1 0
vn 0 -1 0
vn 0 -1 0
vn 0 -1 0
vn 1 0 0
vn 1 0 0
vn 1 0 0
vn 1 0 0
vn -1 0 0
vn -1 0 0
vn -1 0 0
vn -1 0 0

vt 0 0
vt 1 0
vt 0 1
vt 1 1
vt 0 1
vt 1 1
vt 0 1
vt 1 1
vt 0 0
vt 1 0
vt 0 0
vt 1 0
vt 0 0
vt 0 1
vt 1 1
vt 1 0
vt 0 0
vt 0 1
vt 1 1
vt 1 0
vt 0 0
vt 0 1
vt 1 1
vt 1 0

usemtl Lit
usemap Lit
f 75/75/75 73/73/73 76/76/76
f 76/76/76 73/73/73 74/74/74
f 77/77/77 81/81/81 78/78/78
f 78/78/78 81/81/81 82/82/82
f 79/79/79 83/83/83 80/80/80
f 80/80/80 83/83/83 84/84/84
f 86/86/86 85/85/85 87/87/87
f 87/87/87 85/85/85 88/88/88
f 90/90/90 89/89/89 91/91/91
f 91/91/91 89/89/89 92/92/92
f 94/94/94 93/93/93 95/95/95
f 95/95/95 93/93/93 96/96/96
mtllib ./Map1.mtl
g Cube
v 1.999825 -0.667 -4.956306
v 3.959826 -0.667 -4.956306
v 1.999825 2.333 -4.956306
v 3.959826 2.333 -4.956306
v 1.999825 2.333 -5.356306
v 3.959826 2.333 -5.356306
v 1.999825 -0.667 -5.356306
v 3.959826 -0.667 -5.356306
v 1.999825 2.333 -4.956306
v 3.959826 2.333 -4.956306
v 1.999825 2.333 -5.356306
v 3.959826 2.333 -5.356306
v 1.999825 -0.667 -5.356306
v 1.999825 -0.667 -4.956306
v 3.959826 -0.667 -4.956306
v 3.959826 -0.667 -5.356306
v 3.959826 -0.667 -4.956306
v 3.959826 2.333 -4.956306
v 3.959826 2.333 -5.356306
v 3.959826 -0.667 -5.356306
v 1.999825 -0.667 -5.356306
v 1.999825 2.333 -5.356306
v 1.999825 2.333 -4.956306
v 1.999825 -0.667 -4.956306

vn 0 0 1
vn 0 0 1
vn 0 0 1
vn 0 0 1
vn 0 1 0
vn 0 1 0
vn 0 0 -1
vn 0 0 -1
vn 0 1 0
vn 0 1 0
vn 0 0 -1
vn 0 0 -1
vn 0 -1 0
vn 0 -1 0
vn 0 -1 0
vn 0 -1 0
vn 1 0 0
vn 1 0 0
vn 1 0 0
vn 1 0 0
vn -1 0 0
vn -1 0 0
vn -1 0 0
vn -1 0 0

vt 0 0
vt 1 0
vt 0 1
vt 1 1
vt 0 1
vt 1 1
vt 0 1
vt 1 1
vt 0 0
vt 1 0
vt 0 0
vt 1 0
vt 0 0
vt 0 1
vt 1 1
vt 1 0
vt 0 0
vt 0 1
vt 1 1
vt 1 0
vt 0 0
vt 0 1
vt 1 1
vt 1 0

usemtl Lit
usemap Lit
f 99/99/99 97/97/97 100/100/100
f 100/100/100 97/97/97 98/98/98
f 101/101/101 105/105/105 102/102/102
f 102/102/102 105/105/105 106/106/106
f 103/103/103 107/107/107 104/104/104
f 104/104/104 107/107/107 108/108/108
f 110/110/110 109/109/109 111/111/111
f 111/111/111 109/109/109 112/112/112
f 114/114/114 113/113/113 115/115/115
f 115/115/115 113/113/113 116/116/116
f 118/118/118 117/117/117 119/119/119
f 119/119/119 117/117/117 120/120/120
mtllib ./Map1.mtl
g Cube
v -9.400175 -0.14 -2.925306
v -8.680175 -0.14 -2.925306
v -9.400175 2.86 -2.925306
v -8.680175 2.86 -2.925306
v -9.400175 2.86 -3.925306
v -8.680175 2.86 -3.925306
v -9.400175 -0.14 -3.925306
v -8.680175 -0.14 -3.925306
v -9.400175 2.86 -2.925306
v -8.680175 2.86 -2.925306
v -9.400175 2.86 -3.925306
v -8.680175 2.86 -3.925306
v -9.400175 -0.14 -3.925306
v -9.400175 -0.14 -2.925306
v -8.680175 -0.14 -2.925306
v -8.680175 -0.14 -3.925306
v -8.680175 -0.14 -2.925306
v -8.680175 2.86 -2.925306
v -8.680175 2.86 -3.925306
v -8.680175 -0.14 -3.925306
v -9.400175 -0.14 -3.925306
v -9.400175 2.86 -3.925306
v -9.400175 2.86 -2.925306
v -9.400175 -0.14 -2.925306

vn 0 0 1
vn 0 0 1
vn 0 0 1
vn 0 0 1
vn 0 1 0
vn 0 1 0
vn 0 0 -1
vn 0 0 -1
vn 0 1 0
vn 0 1 0
vn 0 0 -1
vn 0 0 -1
vn 0 -1 0
vn 0 -1 0
vn 0 -1 0
vn 0 -1 0
vn 1 0 0
vn 1 0 0
vn 1 0 0
vn 1 0 0
vn -1 0 0
vn -1 0 0
vn -1 0 0
vn -1 0 0

vt 0 0
vt 1 0
vt 0 1
vt 1 1
vt 0 1
vt 1 1
vt 0 1
vt 1 1
vt 0 0
vt 1 0
vt 0 0
vt 1 0
vt 0 0
vt 0 1
vt 1 1
vt 1 0
vt 0 0
vt 0 1
vt 1 1
vt 1 0
vt 0 0
vt 0 1
vt 1 1
vt 1 0

usemtl Lit
usemap Lit
f 123/123/123 121/121/121 124/124/124
f 124/124/124 121/121/121 122/122/122
f 125/125/125 129/129/129 126/126/126
f 126/126/126 129/129/129 130/130/130
f 127/127/127 131/131/131 128/128/128
f 128/128/128 131/131/131 132/132/132
f 134/134/134 133/133/133 135/135/135
f 135/135/135 133/133/133 136/136/136
f 138/138/138 137/137/137 139/139/139
f 139/139/139 137/137/137 140/140/140
f 142/142/142 141/141/141 143/143/143
f 143/143/143 141/141/141 144/144/144
mtllib ./Map1.mtl
g Cube
v 14.02483 -0.14 5.074694
v 14.57483 -0.14 5.074694
v 14.02483 2.86 5.074694
v 14.57483 2.86 5.074694
v 14.02483 2.86 4.374693
v 14.57483 2.86 4.374693
v 14.02483 -0.14 4.374693
v 14.57483 -0.14 4.374693
v 14.02483 2.86 5.074694
v 14.57483 2.86 5.074694
v 14.02483 2.86 4.374693
v 14.57483 2.86 4.374693
v 14.02483 -0.14 4.374693
v 14.02483 -0.14 5.074694
v 14.57483 -0.14 5.074694
v 14.57483 -0.14 4.374693
v 14.57483 -0.14 5.074694
v 14.57483 2.86 5.074694
v 14.57483 2.86 4.374693
v 14.57483 -0.14 4.374693
v 14.02483 -0.14 4.374693
v 14.02483 2.86 4.374693
v 14.02483 2.86 5.074694
v 14.02483 -0.14 5.074694

vn 0 0 1
vn 0 0 1
vn 0 0 1
vn 0 0 1
vn 0 1 0
vn 0 1 0
vn 0 0 -1
vn 0 0 -1
vn 0 1 0
vn 0 1 0
vn 0 0 -1
vn 0 0 -1
vn 0 -1 0
vn 0 -1 0
vn 0 -1 0
vn 0 -1 0
vn 1 0 0
vn 1 0 0
vn 1 0 0
vn 1 0 0
vn -1 0 0
vn -1 0 0
vn -1 0 0
vn -1 0 0

vt 0 0
vt 1 0
vt 0 1
vt 1 1
vt 0 1
vt 1 1
vt 0 1
vt 1 1
vt 0 0
vt 1 0
vt 0 0
vt 1 0
vt 0 0
vt 0 1
vt 1 1
vt 1 0
vt 0 0
vt 0 1
vt 1 1
vt 1 0
vt 0 0
vt 0 1
vt 1 1
vt 1 0

usemtl Lit
usemap Lit
f 147/147/147 145/145/145 148/148/148
f 148/148/148 145/145/145 146/146/146
f 149/149/149 153/153/153 150/150/150
f 150/150/150 153/153/153 154/154/154
f 151/151/151 155/155/155 152/152/152
f 152/152/152 155/155/155 156/156/156
f 158/158/158 157/157/157 159/159/159
f 159/159/159 157/157/157 160/160/160
f 162/162/162 161/161/161 163/163/163
f 163/163/163 161/161/161 164/164/164
f 166/166/166 165/165/165 167/167/167
f 167/167/167 165/165/165 168/168/168
mtllib ./Map1.mtl
g Cube
v 9.095994 -0.14 0.4289421
v 9.815993 -0.14 0.4289421
v 9.095994 2.86 0.4289421
v 9.815993 2.86 0.4289421
v 9.095994 2.86 -0.5710579
v 9.815993 2.86 -0.5710579
v 9.095994 -0.14 -0.5710579
v 9.815993 -0.14 -0.5710579
v 9.095994 2.86 0.4289421
v 9.815993 2.86 0.4289421
v 9.095994 2.86 -0.5710579
v 9.815993 2.86 -0.5710579
v 9.095994 -0.14 -0.5710579
v 9.095994 -0.14 0.4289421
v 9.815993 -0.14 0.4289421
v 9.815993 -0.14 -0.5710579
v 9.815993 -0.14 0.4289421
v 9.815993 2.86 0.4289421
v 9.815993 2.86 -0.5710579
v 9.815993 -0.14 -0.5710579
v 9.095994 -0.14 -0.5710579
v 9.095994 2.86 -0.5710579
v 9.095994 2.86 0.4289421
v 9.095994 -0.14 0.4289421

vn 0 0 1
vn 0 0 1
vn 0 0 1
vn 0 0 1
vn 0 1 0
vn 0 1 0
vn 0 0 -1
vn 0 0 -1
vn 0 1 0
vn 0 1 0
vn 0 0 -1
vn 0 0 -1
vn 0 -1 0
vn 0 -1 0
vn 0 -1 0
vn 0 -1 0
vn 1 0 0
vn 1 0 0
vn 1 0 0
vn 1 0 0
vn -1 0 0
vn -1 0 0
vn -1 0 0
vn -1 0 0

vt 0 0
vt 1 0
vt 0 1
vt 1 1
vt 0 1
vt 1 1
vt 0 1
vt 1 1
vt 0 0
vt 1 0
vt 0 0
vt 1 0
vt 0 0
vt 0 1
vt 1 1
vt 1 0
vt 0 0
vt 0 1
vt 1 1
vt 1 0
vt 0 0
vt 0 1
vt 1 1
vt 1 0

usemtl Lit
usemap Lit
f 171/171/171 169/169/169 172/172/172
f 172/172/172 169/169/169 170/170/170
f 173/173/173 177/177/177 174/174/174
f 174/174/174 177/177/177 178/178/178
f 175/175/175 179/179/179 176/176/176
f 176/176/176 179/179/179 180/180/180
f 182/182/182 181/181/181 183/183/183
f 183/183/183 181/181/181 184/184/184
f 186/186/186 185/185/185 187/187/187
f 187/187/187 185/185/185 188/188/188
f 190/190/190 189/189/189 191/191/191
f 191/191/191 189/189/189 192/192/192
mtllib ./Map1.mtl
g Cube (2)
v -2.302132 -0.9690917 0.5892659
v -2.002132 -0.9690917 0.5892659
v -2.302132 2.030908 0.5892659
v -2.002132 2.030908 0.5892659
v -2.302132 2.030908 -1.510734
v -2.002132 2.030908 -1.510734
v -2.302132 -0.9690917 -1.510734
v -2.002132 -0.9690917 -1.510734
v -2.302132 2.030908 0.5892659
v -2.002132 2.030908 0.5892659
v -2.302132 2.030908 -1.510734
v -2.002132 2.030908 -1.510734
v -2.302132 -0.9690917 -1.510734
v -2.302132 -0.9690917 0.5892659
v -2.002132 -0.9690917 0.5892659
v -2.002132 -0.9690917 -1.510734
v -2.002132 -0.9690917 0.5892659
v -2.002132 2.030908 0.5892659
v -2.002132 2.030908 -1.510734
v -2.002132 -0.9690917 -1.510734
v -2.302132 -0.9690917 -1.510734
v -2.302132 2.030908 -1.510734
v -2.302132 2.030908 0.5892659
v -2.302132 -0.9690917 0.5892659

vn 0 0 1
vn 0 0 1
vn 0 0 1
vn 0 0 1
vn 0 1 0
vn 0 1 0
vn 0 0 -1
vn 0 0 -1
vn 0 1 0
vn 0 1 0
vn 0 0 -1
vn 0 0 -1
vn 0 -1 0
vn 0 -1 0
vn 0 -1 0
vn 0 -1 0
vn 1 0 0
vn 1 0 0
vn 1 0 0
vn 1 0 0
vn -1 0 0
vn -1 0 0
vn -1 0 0
vn -1 0 0

vt 0 0
vt 1 0
vt 0 1
vt 1 1
vt 0 1
vt 1 1
vt 0 1
vt 1 1
vt 0 0
vt 1 0
vt 0 0
vt 1 0
vt 0 0
vt 0 1
vt 1 1
vt 1 0
vt 0 0
vt 0 1
vt 1 1
vt 1 0
vt 0 0
vt 0 1
vt 1 1
vt 1 0

usemtl Lit
usemap Lit
f 195/195/195 193/193/193 196/196/196
f 196/196/196 193/193/193 194/194/194
f 197/197/197 201/201/201 198/198/198
f 198/198/198 201/201/201 202/202/202
f 199/199/199 203/203/203 200/200/200
f 200/200/200 203/203/203 204/204/204
f 206/206/206 205/205/205 207/207/207
f 207/207/207 205/205/205 208/208/208
f 210/210/210 209/209/209 211/211/211
f 211/211/211 209/209/209 212/212/212
f 214/214/214 213/213/213 215/215/215
f 215/215/215 213/213/213 216/216/216
mtllib ./Map1.mtl
g Cube (1)
v 2.377869 -0.9690917 0.599266
v 2.677868 -0.9690917 0.599266
v 2.377869 2.030908 0.599266
v 2.677868 2.030908 0.599266
v 2.377869 2.030908 -1.600734
v 2.677868 2.030908 -1.600734
v 2.377869 -0.9690917 -1.600734
v 2.677868 -0.9690917 -1.600734
v 2.377869 2.030908 0.599266
v 2.677868 2.030908 0.599266
v 2.377869 2.030908 -1.600734
v 2.677868 2.030908 -1.600734
v 2.377869 -0.9690917 -1.600734
v 2.377869 -0.9690917 0.599266
v 2.677868 -0.9690917 0.599266
v 2.677868 -0.9690917 -1.600734
v 2.677868 -0.9690917 0.599266
v 2.677868 2.030908 0.599266
v 2.677868 2.030908 -1.600734
v 2.677868 -0.9690917 -1.600734
v 2.377869 -0.9690917 -1.600734
v 2.377869 2.030908 -1.600734
v 2.377869 2.030908 0.599266
v 2.377869 -0.9690917 0.599266

vn 0 0 1
vn 0 0 1
vn 0 0 1
vn 0 0 1
vn 0 1 0
vn 0 1 0
vn 0 0 -1
vn 0 0 -1
vn 0 1 0
vn 0 1 0
vn 0 0 -1
vn 0 0 -1
vn 0 -1 0
vn 0 -1 0
vn 0 -1 0
vn 0 -1 0
vn 1 0 0
vn 1 0 0
vn 1 0 0
vn 1 0 0
vn -1 0 0
vn -1 0 0
vn -1 0 0
vn -1 0 0

vt 0 0
vt 1 0
vt 0 1
vt 1 1
vt 0 1
vt 1 1
vt 0 1
vt 1 1
vt 0 0
vt 1 0
vt 0 0
vt 1 0
vt 0 0
vt 0 1
vt 1 1
vt 1 0
vt 0 0
vt 0 1
vt 1 1
vt 1 0
vt 0 0
vt 0 1
vt 1 1
vt 1 0

usemtl Lit
usemap Lit
f 219/219/219 217/217/217 220/220/220
f 220/220/220 217/217/217 218/218/218
f 221/221/221 225/225/225 222/222/222
f 222/222/222 225/225/225 226/226/226
f 223/223/223 227/227/227 224/224/224
f 224/224/224 227/227/227 228/228/228
f 230/230/230 229/229/229 231/231/231
f 231/231/231 229/229/229 232/232/232
f 234/234/234 233/233/233 235/235/235
f 235/235/235 233/233/233 236/236/236
f 238/238/238 237/237/237 239/239/239
f 239/239/239 237/237/237 240/240/240
mtllib ./Map1.mtl
g Cube (4)
v -2.037132 -0.9690917 0.619266
v 2.412868 -0.9690917 0.619266
v -2.037132 2.030908 0.619266
v 2.412868 2.030908 0.619266
v -2.037132 2.030908 0.179266
v 2.412868 2.030908 0.179266
v -2.037132 -0.9690917 0.179266
v 2.412868 -0.9690917 0.179266
v -2.037132 2.030908 0.619266
v 2.412868 2.030908 0.619266
v -2.037132 2.030908 0.179266
v 2.412868 2.030908 0.179266
v -2.037132 -0.9690917 0.179266
v -2.037132 -0.9690917 0.619266
v 2.412868 -0.9690917 0.619266
v 2.412868 -0.9690917 0.179266
v 2.412868 -0.9690917 0.619266
v 2.412868 2.030908 0.619266
v 2.412868 2.030908 0.179266
v 2.412868 -0.9690917 0.179266
v -2.037132 -0.9690917 0.179266
v -2.037132 2.030908 0.179266
v -2.037132 2.030908 0.619266
v -2.037132 -0.9690917 0.619266

vn 0 0 1
vn 0 0 1
vn 0 0 1
vn 0 0 1
vn 0 1 0
vn 0 1 0
vn 0 0 -1
vn 0 0 -1
vn 0 1 0
vn 0 1 0
vn 0 0 -1
vn 0 0 -1
vn 0 -1 0
vn 0 -1 0
vn 0 -1 0
vn 0 -1 0
vn 1 0 0
vn 1 0 0
vn 1 0 0
vn 1 0 0
vn -1 0 0
vn -1 0 0
vn -1 0 0
vn -1 0 0

vt 0 0
vt 1 0
vt 0 1
vt 1 1
vt 0 1
vt 1 1
vt 0 1
vt 1 1
vt 0 0
vt 1 0
vt 0 0
vt 1 0
vt 0 0
vt 0 1
vt 1 1
vt 1 0
vt 0 0
vt 0 1
vt 1 1
vt 1 0
vt 0 0
vt 0 1
vt 1 1
vt 1 0

usemtl Lit
usemap Lit
f 243/243/243 241/241/241 244/244/244
f 244/244/244 241/241/241 242/242/242
f 245/245/245 249/249/249 246/246/246
f 246/246/246 249/249/249 250/250/250
f 247/247/247 251/251/251 248/248/248
f 248/248/248 251/251/251 252/252/252
f 254/254/254 253/253/253 255/255/255
f 255/255/255 253/253/253 256/256/256
f 258/258/258 257/257/257 259/259/259
f 259/259/259 257/257/257 260/260/260
f 262/262/262 261/261/261 263/263/263
f 263/263/263 261/261/261 264/264/264
mtllib ./Map1.mtl
g Cube (3)
v -2.192131 -0.9690917 -1.230734
v 0.6078686 -0.9690917 -1.230734
v -2.192131 2.030908 -1.230734
v 0.6078686 2.030908 -1.230734
v -2.192131 2.030908 -1.550734
v 0.6078686 2.030908 -1.550734
v -2.192131 -0.9690917 -1.550734
v 0.6078686 -0.9690917 -1.550734
v -2.192131 2.030908 -1.230734
v 0.6078686 2.030908 -1.230734
v -2.192131 2.030908 -1.550734
v 0.6078686 2.030908 -1.550734
v -2.192131 -0.9690917 -1.550734
v -2.192131 -0.9690917 -1.230734
v 0.6078686 -0.9690917 -1.230734
v 0.6078686 -0.9690917 -1.550734
v 0.6078686 -0.9690917 -1.230734
v 0.6078686 2.030908 -1.230734
v 0.6078686 2.030908 -1.550734
v 0.6078686 -0.9690917 -1.550734
v -2.192131 -0.9690917 -1.550734
v -2.192131 2.030908 -1.550734
v -2.192131 2.030908 -1.230734
v -2.192131 -0.9690917 -1.230734

vn 0 0 1
vn 0 0 1
vn 0 0 1
vn 0 0 1
vn 0 1 0
vn 0 1 0
vn 0 0 -1
vn 0 0 -1
vn 0 1 0
vn 0 1 0
vn 0 0 -1
vn 0 0 -1
vn 0 -1 0
vn 0 -1 0
vn 0 -1 0
vn 0 -1 0
vn 1 0 0
vn 1 0 0
vn 1 0 0
vn 1 0 0
vn -1 0 0
vn -1 0 0
vn -1 0 0
vn -1 0 0

vt 0 0
vt 1 0
vt 0 1
vt 1 1
vt 0 1
vt 1 1
vt 0 1
vt 1 1
vt 0 0
vt 1 0
vt 0 0
vt 1 0
vt 0 0
vt 0 1
vt 1 1
vt 1 0
vt 0 0
vt 0 1
vt 1 1
vt 1 0
vt 0 0
vt 0 1
vt 1 1
vt 1 0

usemtl Lit
usemap Lit
f 267/267/267 265/265/265 268/268/268
f 268/268/268 265/265/265 266/266/266
f 269/269/269 273/273/273 270/270/270
f 270/270/270 273/273/273 274/274/274
f 271/271/271 275/275/275 272/272/272
f 272/272/272 275/275/275 276/276/276
f 278/278/278 277/277/277 279/279/279
f 279/279/279 277/277/277 280/280/280
f 282/282/282 281/281/281 283/283/283
f 283/283/283 281/281/281 284/284/284
f 286/286/286 285/285/285 287/287/287
f 287/287/287 285/285/285 288/288/288
mtllib ./Map1.mtl
g Cube (9)
v -3.302131 -0.9690917 -0.5307341
v -2.302131 -0.9690917 -0.5307341
v -3.302131 2.030908 -0.5307341
v -2.302131 2.030908 -0.5307341
v -3.302131 2.030908 -1.530734
v -2.302131 2.030908 -1.530734
v -3.302131 -0.9690917 -1.530734
v -2.302131 -0.9690917 -1.530734
v -3.302131 2.030908 -0.5307341
v -2.302131 2.030908 -0.5307341
v -3.302131 2.030908 -1.530734
v -2.302131 2.030908 -1.530734
v -3.302131 -0.9690917 -1.530734
v -3.302131 -0.9690917 -0.5307341
v -2.302131 -0.9690917 -0.5307341
v -2.302131 -0.9690917 -1.530734
v -2.302131 -0.9690917 -0.5307341
v -2.302131 2.030908 -0.5307341
v -2.302131 2.030908 -1.530734
v -2.302131 -0.9690917 -1.530734
v -3.302131 -0.9690917 -1.530734
v -3.302131 2.030908 -1.530734
v -3.302131 2.030908 -0.5307341
v -3.302131 -0.9690917 -0.5307341

vn 0 0 1
vn 0 0 1
vn 0 0 1
vn 0 0 1
vn 0 1 0
vn 0 1 0
vn 0 0 -1
vn 0 0 -1
vn 0 1 0
vn 0 1 0
vn 0 0 -1
vn 0 0 -1
vn 0 -1 0
vn 0 -1 0
vn 0 -1 0
vn 0 -1 0
vn 1 0 0
vn 1 0 0
vn 1 0 0
vn 1 0 0
vn -1 0 0
vn -1 0 0
vn -1 0 0
vn -1 0 0

vt 0 0
vt 1 0
vt 0 1
vt 1 1
vt 0 1
vt 1 1
vt 0 1
vt 1 1
vt 0 0
vt 1 0
vt 0 0
vt 1 0
vt 0 0
vt 0 1
vt 1 1
vt 1 0
vt 0 0
vt 0 1
vt 1 1
vt 1 0
vt 0 0
vt 0 1
vt 1 1
vt 1 0

usemtl Lit
usemap Lit
f 291/291/291 289/289/289 292/292/292
f 292/292/292 289/289/289 290/290/290
f 293/293/293 297/297/297 294/294/294
f 294/294/294 297/297/297 298/298/298
f 295/295/295 299/299/299 296/296/296
f 296/296/296 299/299/299 300/300/300
f 302/302/302 301/301/301 303/303/303
f 303/303/303 301/301/301 304/304/304
f 306/306/306 305/305/305 307/307/307
f 307/307/307 305/305/305 308/308/308
f 310/310/310 309/309/309 311/311/311
f 311/311/311 309/309/309 312/312/312
mtllib ./Map1.mtl
g Cube (8)
v -0.2721314 -0.9690917 0.199266
v 0.2278686 -0.9690917 0.199266
v -0.2721314 2.030908 0.199266
v 0.2278686 2.030908 0.199266
v -0.2721314 2.030908 -0.300734
v 0.2278686 2.030908 -0.300734
v -0.2721314 -0.9690917 -0.300734
v 0.2278686 -0.9690917 -0.300734
v -0.2721314 2.030908 0.199266
v 0.2278686 2.030908 0.199266
v -0.2721314 2.030908 -0.300734
v 0.2278686 2.030908 -0.300734
v -0.2721314 -0.9690917 -0.300734
v -0.2721314 -0.9690917 0.199266
v 0.2278686 -0.9690917 0.199266
v 0.2278686 -0.9690917 -0.300734
v 0.2278686 -0.9690917 0.199266
v 0.2278686 2.030908 0.199266
v 0.2278686 2.030908 -0.300734
v 0.2278686 -0.9690917 -0.300734
v -0.2721314 -0.9690917 -0.300734
v -0.2721314 2.030908 -0.300734
v -0.2721314 2.030908 0.199266
v -0.2721314 -0.9690917 0.199266

vn 0 0 1
vn 0 0 1
vn 0 0 1
vn 0 0 1
vn 0 1 0
vn 0 1 0
vn 0 0 -1
vn 0 0 -1
vn 0 1 0
vn 0 1 0
vn 0 0 -1
vn 0 0 -1
vn 0 -1 0
vn 0 -1 0
vn 0 -1 0
vn 0 -1 0
vn 1 0 0
vn 1 0 0
vn 1 0 0
vn 1 0 0
vn -1 0 0
vn -1 0 0
vn -1 0 0
vn -1 0 0

vt 0 0
vt 1 0
vt 0 1
vt 1 1
vt 0 1
vt 1 1
vt 0 1
vt 1 1
vt 0 0
vt 1 0
vt 0 0
vt 1 0
vt 0 0
vt 0 1
vt 1 1
vt 1 0
vt 0 0
vt 0 1
vt 1 1
vt 1 0
vt 0 0
vt 0 1
vt 1 1
vt 1 0

usemtl Lit
usemap Lit
f 315/315/315 313/313/313 316/316/316
f 316/316/316 313/313/313 314/314/314
f 317/317/317 321/321/321 318/318/318
f 318/318/318 321/321/321 322/322/322
f 319/319/319 323/323/323 320/320/320
f 320/320/320 323/323/323 324/324/324
f 326/326/326 325/325/325 327/327/327
f 327/327/327 325/325/325 328/328/328
f 330/330/330 329/329/329 331/331/331
f 331/331/331 329/329/329 332/332/332
f 334/334/334 333/333/333 335/335/335
f 335/335/335 333/333/333 336/336/336
mtllib ./Map1.mtl
g Cube (7)
v -2.112131 -0.9690917 0.359266
v -1.312131 -0.9690917 0.359266
v -2.112131 2.030908 0.359266
v -1.312131 2.030908 0.359266
v -2.112131 2.030908 -0.940734
v -1.312131 2.030908 -0.940734
v -2.112131 -0.9690917 -0.940734
v -1.312131 -0.9690917 -0.940734
v -2.112131 2.030908 0.359266
v -1.312131 2.030908 0.359266
v -2.112131 2.030908 -0.940734
v -1.312131 2.030908 -0.940734
v -2.112131 -0.9690917 -0.940734
v -2.112131 -0.9690917 0.359266
v -1.312131 -0.9690917 0.359266
v -1.312131 -0.9690917 -0.940734
v -1.312131 -0.9690917 0.359266
v -1.312131 2.030908 0.359266
v -1.312131 2.030908 -0.940734
v -1.312131 -0.9690917 -0.940734
v -2.112131 -0.9690917 -0.940734
v -2.112131 2.030908 -0.940734
v -2.112131 2.030908 0.359266
v -2.112131 -0.9690917 0.359266

vn 0 0 1
vn 0 0 1
vn 0 0 1
vn 0 0 1
vn 0 1 0
vn 0 1 0
vn 0 0 -1
vn 0 0 -1
vn 0 1 0
vn 0 1 0
vn 0 0 -1
vn 0 0 -1
vn 0 -1 0
vn 0 -1 0
vn 0 -1 0
vn 0 -1 0
vn 1 0 0
vn 1 0 0
vn 1 0 0
vn 1 0 0
vn -1 0 0
vn -1 0 0
vn -1 0 0
vn -1 0 0

vt 0 0
vt 1 0
vt 0 1
vt 1 1
vt 0 1
vt 1 1
vt 0 1
vt 1 1
vt 0 0
vt 1 0
vt 0 0
vt 1 0
vt 0 0
vt 0 1
vt 1 1
vt 1 0
vt 0 0
vt 0 1
vt 1 1
vt 1 0
vt 0 0
vt 0 1
vt 1 1
vt 1 0

usemtl Lit
usemap Lit
f 339/339/339 337/337/337 340/340/340
f 340/340/340 337/337/337 338/338/338
f 341/341/341 345/345/345 342/342/342
f 342/342/342 345/345/345 346/346/346
f 343/343/343 347/347/347 344/344/344
f 344/344/344 347/347/347 348/348/348
f 350/350/350 349/349/349 351/351/351
f 351/351/351 349/349/349 352/352/352
f 354/354/354 353/353/353 355/355/355
f 355/355/355 353/353/353 356/356/356
f 358/358/358 357/357/357 359/359/359
f 359/359/359 357/357/357 360/360/360
mtllib ./Map1.mtl
g Cube (6)
v 1.577869 -0.9690917 -0.105734
v 2.377869 -0.9690917 -0.105734
v 1.577869 2.030908 -0.105734
v 2.377869 2.030908 -0.105734
v 1.577869 2.030908 -0.635734
v 2.377869 2.030908 -0.635734
v 1.577869 -0.9690917 -0.635734
v 2.377869 -0.9690917 -0.635734
v 1.577869 2.030908 -0.105734
v 2.377869 2.030908 -0.105734
v 1.577869 2.030908 -0.635734
v 2.377869 2.030908 -0.635734
v 1.577869 -0.9690917 -0.635734
v 1.577869 -0.9690917 -0.105734
v 2.377869 -0.9690917 -0.105734
v 2.377869 -0.9690917 -0.635734
v 2.377869 -0.9690917 -0.105734
v 2.377869 2.030908 -0.105734
v 2.377869 2.030908 -0.635734
v 2.377869 -0.9690917 -0.635734
v 1.577869 -0.9690917 -0.635734
v 1.577869 2.030908 -0.635734
v 1.577869 2.030908 -0.105734
v 1.577869 -0.9690917 -0.105734

vn 0 0 1
vn 0 0 1
vn 0 0 1
vn 0 0 1
vn 0 1 0
vn 0 1 0
vn 0 0 -1
vn 0 0 -1
vn 0 1 0
vn 0 1 0
vn 0 0 -1
vn 0 0 -1
vn 0 -1 0
vn 0 -1 0
vn 0 -1 0
vn 0 -1 0
vn 1 0 0
vn 1 0 0
vn 1 0 0
vn 1 0 0
vn -1 0 0
vn -1 0 0
vn -1 0 0
vn -1 0 0

vt 0 0
vt 1 0
vt 0 1
vt 1 1
vt 0 1
vt 1 1
vt 0 1
vt 1 1
vt 0 0
vt 1 0
vt 0 0
vt 1 0
vt 0 0
vt 0 1
vt 1 1
vt 1 0
vt 0 0
vt 0 1
vt 1 1
vt 1 0
vt 0 0
vt 0 1
vt 1 1
vt 1 0

usemtl Lit
usemap Lit
f 363/363/363 361/361/361 364/364/364
f 364/364/364 361/361/361 362/362/362
f 365/365/365 369/369/369 366/366/366
f 366/366/366 369/369/369 370/370/370
f 367/367/367 371/371/371 368/368/368
f 368/368/368 371/371/371 372/372/372
f 374/374/374 373/373/373 375/375/375
f 375/375/375 373/373/373 376/376/376
f 378/378/378 377/377/377 379/379/379
f 379/379/379 377/377/377 380/380/380
f 382/382/382 381/381/381 383/383/383
f 383/383/383 381/381/381 384/384/384
mtllib ./Map1.mtl
g Cube (5)
v 1.037868 -0.9690917 0.464266
v 2.537868 -0.9690917 0.464266
v 1.037868 2.030908 0.464266
v 2.537868 2.030908 0.464266
v 1.037868 2.030908 -0.06573397
v 2.537868 2.030908 -0.06573397
v 1.037868 -0.9690917 -0.06573397
v 2.537868 -0.9690917 -0.06573397
v 1.037868 2.030908 0.464266
v 2.537868 2.030908 0.464266
v 1.037868 2.030908 -0.06573397
v 2.537868 2.030908 -0.06573397
v 1.037868 -0.9690917 -0.06573397
v 1.037868 -0.9690917 0.464266
v 2.537868 -0.9690917 0.464266
v 2.537868 -0.9690917 -0.06573397
v 2.537868 -0.9690917 0.464266
v 2.537868 2.030908 0.464266
v 2.537868 2.030908 -0.06573397
v 2.537868 -0.9690917 -0.06573397
v 1.037868 -0.9690917 -0.06573397
v 1.037868 2.030908 -0.06573397
v 1.037868 2.030908 0.464266
v 1.037868 -0.9690917 0.464266

vn 0 0 1
vn 0 0 1
vn 0 0 1
vn 0 0 1
vn 0 1 0
vn 0 1 0
vn 0 0 -1
vn 0 0 -1
vn 0 1 0
vn 0 1 0
vn 0 0 -1
vn 0 0 -1
vn 0 -1 0
vn 0 -1 0
vn 0 -1 0
vn 0 -1 0
vn 1 0 0
vn 1 0 0
vn 1 0 0
vn 1 0 0
vn -1 0 0
vn -1 0 0
vn -1 0 0
vn -1 0 0

vt 0 0
vt 1 0
vt 0 1
vt 1 1
vt 0 1
vt 1 1
vt 0 1
vt 1 1
vt 0 0
vt 1 0
vt 0 0
vt 1 0
vt 0 0
vt 0 1
vt 1 1
vt 1 0
vt 0 0
vt 0 1
vt 1 1
vt 1 0
vt 0 0
vt 0 1
vt 1 1
vt 1 0

usemtl Lit
usemap Lit
f 387/387/387 385/385/385 388/388/388
f 388/388/388 385/385/385 386/386/386
f 389/389/389 393/393/393 390/390/390
f 390/390/390 393/393/393 394/394/394
f 391/391/391 395/395/395 392/392/392
f 392/392/392 395/395/395 396/396/396
f 398/398/398 397/397/397 399/399/399
f 399/399/399 397/397/397 400/400/400
f 402/402/402 401/401/401 403/403/403
f 403/403/403 401/401/401 404/404/404
f 406/406/406 405/405/405 407/407/407
f 407/407/407 405/405/405 408/408/408
mtllib ./Map1.mtl
g Cube
v 1.620869 -0.9690917 -1.230734
v 2.620869 -0.9690917 -1.230734
v 1.620869 2.030908 -1.230734
v 2.620869 2.030908 -1.230734
v 1.620869 2.030908 -1.550734
v 2.620869 2.030908 -1.550734
v 1.620869 -0.9690917 -1.550734
v 2.620869 -0.9690917 -1.550734
v 1.620869 2.030908 -1.230734
v 2.620869 2.030908 -1.230734
v 1.620869 2.030908 -1.550734
v 2.620869 2.030908 -1.550734
v 1.620869 -0.9690917 -1.550734
v 1.620869 -0.9690917 -1.230734
v 2.620869 -0.9690917 -1.230734
v 2.620869 -0.9690917 -1.550734
v 2.620869 -0.9690917 -1.230734
v 2.620869 2.030908 -1.230734
v 2.620869 2.030908 -1.550734
v 2.620869 -0.9690917 -1.550734
v 1.620869 -0.9690917 -1.550734
v 1.620869 2.030908 -1.550734
v 1.620869 2.030908 -1.230734
v 1.620869 -0.9690917 -1.230734

vn 0 0 1
vn 0 0 1
vn 0 0 1
vn 0 0 1
vn 0 1 0
vn 0 1 0
vn 0 0 -1
vn 0 0 -1
vn 0 1 0
vn 0 1 0
vn 0 0 -1
vn 0 0 -1
vn 0 -1 0
vn 0 -1 0
vn 0 -1 0
vn 0 -1 0
vn 1 0 0
vn 1 0 0
vn 1 0 0
vn 1 0 0
vn -1 0 0
vn -1 0 0
vn -1 0 0
vn -1 0 0

vt 0 0
vt 1 0
vt 0 1
vt 1 1
vt 0 1
vt 1 1
vt 0 1
vt 1 1
vt 0 0
vt 1 0
vt 0 0
vt 1 0
vt 0 0
vt 0 1
vt 1 1
vt 1 0
vt 0 0
vt 0 1
vt 1 1
vt 1 0
vt 0 0
vt 0 1
vt 1 1
vt 1 0

usemtl Lit
usemap Lit
f 411/411/411 409/409/409 412/412/412
f 412/412/412 409/409/409 410/410/410
f 413/413/413 417/417/417 414/414/414
f 414/414/414 417/417/417 418/418/418
f 415/415/415 419/419/419 416/416/416
f 416/416/416 419/419/419 420/420/420
f 422/422/422 421/421/421 423/423/423
f 423/423/423 421/421/421 424/424/424
f 426/426/426 425/425/425 427/427/427
f 427/427/427 425/425/425 428/428/428
f 430/430/430 429/429/429 431/431/431
f 431/431/431 429/429/429 432/432/432
mtllib ./Map1.mtl
g Cube
v 4.059825 -0.667 -4.956306
v 6.019825 -0.667 -4.956306
v 4.059825 2.333 -4.956306
v 6.019825 2.333 -4.956306
v 4.059825 2.333 -5.356306
v 6.019825 2.333 -5.356306
v 4.059825 -0.667 -5.356306
v 6.019825 -0.667 -5.356306
v 4.059825 2.333 -4.956306
v 6.019825 2.333 -4.956306
v 4.059825 2.333 -5.356306
v 6.019825 2.333 -5.356306
v 4.059825 -0.667 -5.356306
v 4.059825 -0.667 -4.956306
v 6.019825 -0.667 -4.956306
v 6.019825 -0.667 -5.356306
v 6.019825 -0.667 -4.956306
v 6.019825 2.333 -4.956306
v 6.019825 2.333 -5.356306
v 6.019825 -0.667 -5.356306
v 4.059825 -0.667 -5.356306
v 4.059825 2.333 -5.356306
v 4.059825 2.333 -4.956306
v 4.059825 -0.667 -4.956306

vn 0 0 1
vn 0 0 1
vn 0 0 1
vn 0 0 1
vn 0 1 0
vn 0 1 0
vn 0 0 -1
vn 0 0 -1
vn 0 1 0
vn 0 1 0
vn 0 0 -1
vn 0 0 -1
vn 0 -1 0
vn 0 -1 0
vn 0 -1 0
vn 0 -1 0
vn 1 0 0
vn 1 0 0
vn 1 0 0
vn 1 0 0
vn -1 0 0
vn -1 0 0
vn -1 0 0
vn -1 0 0

vt 0 0
vt 1 0
vt 0 1
vt 1 1
vt 0 1
vt 1 1
vt 0 1
vt 1 1
vt 0 0
vt 1 0
vt 0 0
vt 1 0
vt 0 0
vt 0 1
vt 1 1
vt 1 0
vt 0 0
vt 0 1
vt 1 1
vt 1 0
vt 0 0
vt 0 1
vt 1 1
vt 1 0

usemtl Lit
usemap Lit
f 435/435/435 433/433/433 436/436/436
f 436/436/436 433/433/433 434/434/434
f 437/437/437 441/441/441 438/438/438
f 438/438/438 441/441/441 442/442/442
f 439/439/439 443/443/443 440/440/440
f 440/440/440 443/443/443 444/444/444
f 446/446/446 445/445/445 447/447/447
f 447/447/447 445/445/445 448/448/448
f 450/450/450 449/449/449 451/451/451
f 451/451/451 449/449/449 452/452/452
f 454/454/454 453/453/453 455/455/455
f 455/455/455 453/453/453 456/456/456
mtllib ./Map1.mtl
g Cube
v 19.21482 -0.14 8.324694
v 19.76482 -0.14 8.324694
v 19.21482 2.86 8.324694
v 19.76482 2.86 8.324694
v 19.21482 2.86 7.624693
v 19.76482 2.86 7.624693
v 19.21482 -0.14 7.624693
v 19.76482 -0.14 7.624693
v 19.21482 2.86 8.324694
v 19.76482 2.86 8.324694
v 19.21482 2.86 7.624693
v 19.76482 2.86 7.624693
v 19.21482 -0.14 7.624693
v 19.21482 -0.14 8.324694
v 19.76482 -0.14 8.324694
v 19.76482 -0.14 7.624693
v 19.76482 -0.14 8.324694
v 19.76482 2.86 8.324694
v 19.76482 2.86 7.624693
v 19.76482 -0.14 7.624693
v 19.21482 -0.14 7.624693
v 19.21482 2.86 7.624693
v 19.21482 2.86 8.324694
v 19.21482 -0.14 8.324694

vn 0 0 1
vn 0 0 1
vn 0 0 1
vn 0 0 1
vn 0 1 0
vn 0 1 0
vn 0 0 -1
vn 0 0 -1
vn 0 1 0
vn 0 1 0
vn 0 0 -1
vn 0 0 -1
vn 0 -1 0
vn 0 -1 0
vn 0 -1 0
vn 0 -1 0
vn 1 0 0
vn 1 0 0
vn 1 0 0
vn 1 0 0
vn -1 0 0
vn -1 0 0
vn -1 0 0
vn -1 0 0

vt 0 0
vt 1 0
vt 0 1
vt 1 1
vt 0 1
vt 1 1
vt 0 1
vt 1 1
vt 0 0
vt 1 0
vt 0 0
vt 1 0
vt 0 0
vt 0 1
vt 1 1
vt 1 0
vt 0 0
vt 0 1
vt 1 1
vt 1 0
vt 0 0
vt 0 1
vt 1 1
vt 1 0

usemtl Lit
usemap Lit
f 459/459/459 457/457/457 460/460/460
f 460/460/460 457/457/457 458/458/458
f 461/461/461 465/465/465 462/462/462
f 462/462/462 465/465/465 466/466/466
f 463/463/463 467/467/467 464/464/464
f 464/464/464 467/467/467 468/468/468
f 470/470/470 469/469/469 471/471/471
f 471/471/471 469/469/469 472/472/472
f 474/474/474 473/473/473 475/475/475
f 475/475/475 473/473/473 476/476/476
f 478/478/478 477/477/477 479/479/479
f 479/479/479 477/477/477 480/480/480
mtllib ./Map1.mtl
g Cube
v 11.94983 -0.14 6.594694
v 12.44983 -0.14 6.594694
v 11.94983 2.86 6.594694
v 12.44983 2.86 6.594694
v 11.94983 2.86 5.894693
v 12.44983 2.86 5.894693
v 11.94983 -0.14 5.894693
v 12.44983 -0.14 5.894693
v 11.94983 2.86 6.594694
v 12.44983 2.86 6.594694
v 11.94983 2.86 5.894693
v 12.44983 2.86 5.894693
v 11.94983 -0.14 5.894693
v 11.94983 -0.14 6.594694
v 12.44983 -0.14 6.594694
v 12.44983 -0.14 5.894693
v 12.44983 -0.14 6.594694
v 12.44983 2.86 6.594694
v 12.44983 2.86 5.894693
v 12.44983 -0.14 5.894693
v 11.94983 -0.14 5.894693
v 11.94983 2.86 5.894693
v 11.94983 2.86 6.594694
v 11.94983 -0.14 6.594694

vn 0 0 1
vn 0 0 1
vn 0 0 1
vn 0 0 1
vn 0 1 0
vn 0 1 0
vn 0 0 -1
vn 0 0 -1
vn 0 1 0
vn 0 1 0
vn 0 0 -1
vn 0 0 -1
vn 0 -1 0
vn 0 -1 0
vn 0 -1 0
vn 0 -1 0
vn 1 0 0
vn 1 0 0
vn 1 0 0
vn 1 0 0
vn -1 0 0
vn -1 0 0
vn -1 0 0
vn -1 0 0

vt 0 0
vt 1 0
vt 0 1
vt 1 1
vt 0 1
vt 1 1
vt 0 1
vt 1 1
vt 0 0
vt 1 0
vt 0 0
vt 1 0
vt 0 0
vt 0 1
vt 1 1
vt 1 0
vt 0 0
vt 0 1
vt 1 1
vt 1 0
vt 0 0
vt 0 1
vt 1 1
vt 1 0

usemtl Lit
usemap Lit
f 483/483/483 481/481/481 484/484/484
f 484/484/484 481/481/481 482/482/482
f 485/485/485 489/489/489 486/486/486
f 486/486/486 489/489/489 490/490/490
f 487/487/487 491/491/491 488/488/488
f 488/488/488 491/491/491 492/492/492
f 494/494/494 493/493/493 495/495/495
f 495/495/495 493/493/493 496/496/496
f 498/498/498 497/497/497 499/499/499
f 499/499/499 497/497/497 500/500/500
f 502/502/502 501/501/501 503/503/503
f 503/503/503 501/501/501 504/504/504
mtllib ./Map1.mtl
g Cube
v 11.68983 -0.14 -7.275306
v 12.18983 -0.14 -7.275306
v 11.68983 2.86 -7.275306
v 12.18983 2.86 -7.275306
v 11.68983 2.86 -7.975307
v 12.18983 2.86 -7.975307
v 11.68983 -0.14 -7.975307
v 12.18983 -0.14 -7.975307
v 11.68983 2.86 -7.275306
v 12.18983 2.86 -7.275306
v 11.68983 2.86 -7.975307
v 12.18983 2.86 -7.975307
v 11.68983 -0.14 -7.975307
v 11.68983 -0.14 -7.275306
v 12.18983 -0.14 -7.275306
v 12.18983 -0.14 -7.975307
v 12.18983 -0.14 -7.275306
v 12.18983 2.86 -7.275306
v 12.18983 2.86 -7.975307
v 12.18983 -0.14 -7.975307
v 11.68983 -0.14 -7.975307
v 11.68983 2.86 -7.975307
v 11.68983 2.86 -7.275306
v 11.68983 -0.14 -7.275306

vn 0 0 1
vn 0 0 1
vn 0 0 1
vn 0 0 1
vn 0 1 0
vn 0 1 0
vn 0 0 -1
vn 0 0 -1
vn 0 1 0
vn 0 1 0
vn 0 0 -1
vn 0 0 -1
vn 0 -1 0
vn 0 -1 0
vn 0 -1 0
vn 0 -1 0
vn 1 0 0
vn 1 0 0
vn 1 0 0
vn 1 0 0
vn -1 0 0
vn -1 0 0
vn -1 0 0
vn -1 0 0

vt 0 0
vt 1 0
vt 0 1
vt 1 1
vt 0 1
vt 1 1
vt 0 1
vt 1 1
vt 0 0
vt 1 0
vt 0 0
vt 1 0
vt 0 0
vt 0 1
vt 1 1
vt 1 0
vt 0 0
vt 0 1
vt 1 1
vt 1 0
vt 0 0
vt 0 1
vt 1 1
vt 1 0

usemtl Lit
usemap Lit
f 507/507/507 505/505/505 508/508/508
f 508/508/508 505/505/505 506/506/506
f 509/509/509 513/513/513 510/510/510
f 510/510/510 513/513/513 514/514/514
f 511/511/511 515/515/515 512/512/512
f 512/512/512 515/515/515 516/516/516
f 518/518/518 517/517/517 519/519/519
f 519/519/519 517/517/517 520/520/520
f 522/522/522 521/521/521 523/523/523
f 523/523/523 521/521/521 524/524/524
f 526/526/526 525/525/525 527/527/527
f 527/527/527 525/525/525 528/528/528
mtllib ./Map1.mtl
g Cube
v 6.089826 -0.667 -4.956306
v 7.489825 -0.667 -4.956306
v 6.089826 2.333 -4.956306
v 7.489825 2.333 -4.956306
v 6.089826 2.333 -5.356306
v 7.489825 2.333 -5.356306
v 6.089826 -0.667 -5.356306
v 7.489825 -0.667 -5.356306
v 6.089826 2.333 -4.956306
v 7.489825 2.333 -4.956306
v 6.089826 2.333 -5.356306
v 7.489825 2.333 -5.356306
v 6.089826 -0.667 -5.356306
v 6.089826 -0.667 -4.956306
v 7.489825 -0.667 -4.956306
v 7.489825 -0.667 -5.356306
v 7.489825 -0.667 -4.956306
v 7.489825 2.333 -4.956306
v 7.489825 2.333 -5.356306
v 7.489825 -0.667 -5.356306
v 6.089826 -0.667 -5.356306
v 6.089826 2.333 -5.356306
v 6.089826 2.333 -4.956306
v 6.089826 -0.667 -4.956306

vn 0 0 1
vn 0 0 1
vn 0 0 1
vn 0 0 1
vn 0 1 0
vn 0 1 0
vn 0 0 -1
vn 0 0 -1
vn 0 1 0
vn 0 1 0
vn 0 0 -1
vn 0 0 -1
vn 0 -1 0
vn 0 -1 0
vn 0 -1 0
vn 0 -1 0
vn 1 0 0
vn 1 0 0
vn 1 0 0
vn 1 0 0
vn -1 0 0
vn -1 0 0
vn -1 0 0
vn -1 0 0

vt 0 0
vt 1 0
vt 0 1
vt 1 1
vt 0 1
vt 1 1
vt 0 1
vt 1 1
vt 0 0
vt 1 0
vt 0 0
vt 1 0
vt 0 0
vt 0 1
vt 1 1
vt 1 0
vt 0 0
vt 0 1
vt 1 1
vt 1 0
vt 0 0
vt 0 1
vt 1 1
vt 1 0

usemtl Lit
usemap Lit
f 531/531/531 529/529/529 532/532/532
f 532/532/532 529/529/529 530/530/530
f 533/533/533 537/537/537 534/534/534
f 534/534/534 537/537/537 538/538/538
f 535/535/535 539/539/539 536/536/536
f 536/536/536 539/539/539 540/540/540
f 542/542/542 541/541/541 543/543/543
f 543/543/543 541/541/541 544/544/544
f 546/546/546 545/545/545 547/547/547
f 547/547/547 545/545/545 548/548/548
f 550/550/550 549/549/549 551/551/551
f 551/551/551 549/549/549 552/552/552
mtllib ./Map1.mtl
g Cube
v 2.119825 -0.14 6.244694
v 2.839826 -0.14 6.244694
v 2.119825 2.86 6.244694
v 2.839826 2.86 6.244694
v 2.119825 2.86 5.244694
v 2.839826 2.86 5.244694
v 2.119825 -0.14 5.244694
v 2.839826 -0.14 5.244694
v 2.119825 2.86 6.244694
v 2.839826 2.86 6.244694
v 2.119825 2.86 5.244694
v 2.839826 2.86 5.244694
v 2.119825 -0.14 5.244694
v 2.119825 -0.14 6.244694
v 2.839826 -0.14 6.244694
v 2.839826 -0.14 5.244694
v 2.839826 -0.14 6.244694
v 2.839826 2.86 6.244694
v 2.839826 2.86 5.244694
v 2.839826 -0.14 5.244694
v 2.119825 -0.14 5.244694
v 2.119825 2.86 5.244694
v 2.119825 2.86 6.244694
v 2.119825 -0.14 6.244694

vn 0 0 1
vn 0 0 1
vn 0 0 1
vn 0 0 1
vn 0 1 0
vn 0 1 0
vn 0 0 -1
vn 0 0 -1
vn 0 1 0
vn 0 1 0
vn 0 0 -1
vn 0 0 -1
vn 0 -1 0
vn 0 -1 0
vn 0 -1 0
vn 0 -1 0
vn 1 0 0
vn 1 0 0
vn 1 0 0
vn 1 0 0
vn -1 0 0
vn -1 0 0
vn -1 0 0
vn -1 0 0

vt 0 0
vt 1 0
vt 0 1
vt 1 1
vt 0 1
vt 1 1
vt 0 1
vt 1 1
vt 0 0
vt 1 0
vt 0 0
vt 1 0
vt 0 0
vt 0 1
vt 1 1
vt 1 0
vt 0 0
vt 0 1
vt 1 1
vt 1 0
vt 0 0
vt 0 1
vt 1 1
vt 1 0

usemtl Lit
usemap Lit
f 555/555/555 553/553/553 556/556/556
f 556/556/556 553/553/553 554/554/554
f 557/557/557 561/561/561 558/558/558
f 558/558/558 561/561/561 562/562/562
f 559/559/559 563/563/563 560/560/560
f 560/560/560 563/563/563 564/564/564
f 566/566/566 565/565/565 567/567/567
f 567/567/567 565/565/565 568/568/568
f 570/570/570 569/569/569 571/571/571
f 571/571/571 569/569/569 572/572/572
f 574/574/574 573/573/573 575/575/575
f 575/575/575 573/573/573 576/576/576
mtllib ./Map1.mtl
g Cube
v -2.885175 -0.14 6.844694
v -2.335175 -0.14 6.844694
v -2.885175 2.86 6.844694
v -2.335175 2.86 6.844694
v -2.885175 2.86 6.144693
v -2.335175 2.86 6.144693
v -2.885175 -0.14 6.144693
v -2.335175 -0.14 6.144693
v -2.885175 2.86 6.844694
v -2.335175 2.86 6.844694
v -2.885175 2.86 6.144693
v -2.335175 2.86 6.144693
v -2.885175 -0.14 6.144693
v -2.885175 -0.14 6.844694
v -2.335175 -0.14 6.844694
v -2.335175 -0.14 6.144693
v -2.335175 -0.14 6.844694
v -2.335175 2.86 6.844694
v -2.335175 2.86 6.144693
v -2.335175 -0.14 6.144693
v -2.885175 -0.14 6.144693
v -2.885175 2.86 6.144693
v -2.885175 2.86 6.844694
v -2.885175 -0.14 6.844694

vn 0 0 1
vn 0 0 1
vn 0 0 1
vn 0 0 1
vn 0 1 0
vn 0 1 0
vn 0 0 -1
vn 0 0 -1
vn 0 1 0
vn 0 1 0
vn 0 0 -1
vn 0 0 -1
vn 0 -1 0
vn 0 -1 0
vn 0 -1 0
vn 0 -1 0
vn 1 0 0
vn 1 0 0
vn 1 0 0
vn 1 0 0
vn -1 0 0
vn -1 0 0
vn -1 0 0
vn -1 0 0

vt 0 0
vt 1 0
vt 0 1
vt 1 1
vt 0 1
vt 1 1
vt 0 1
vt 1 1
vt 0 0
vt 1 0
vt 0 0
vt 1 0
vt 0 0
vt 0 1
vt 1 1
vt 1 0
vt 0 0
vt 0 1
vt 1 1
vt 1 0
vt 0 0
vt 0 1
vt 1 1
vt 1 0

usemtl Lit
usemap Lit
f 579/579/579 577/577/577 580/580/580
f 580/580/580 577/577/577 578/578/578
f 581/581/581 585/585/585 582/582/582
f 582/582/582 585/585/585 586/586/586
f 583/583/583 587/587/587 584/584/584
f 584/584/584 587/587/587 588/588/588
f 590/590/590 589/589/589 591/591/591
f 591/591/591 589/589/589 592/592/592
f 594/594/594 593/593/593 595/595/595
f 595/595/595 593/593/593 596/596/596
f 598/598/598 597/597/597 599/599/599
f 599/599/599 597/597/597 600/600/600
mtllib ./Map1.mtl
g Cube (2)
v -24.36 -0.75 18.23
v -23.36 -0.75 18.23
v -24.36 4.25 18.23
v -23.36 4.25 18.23
v -24.36 4.25 -18.25
v -23.36 4.25 -18.25
v -24.36 -0.75 -18.25
v -23.36 -0.75 -18.25
v -24.36 4.25 18.23
v -23.36 4.25 18.23
v -24.36 4.25 -18.25
v -23.36 4.25 -18.25
v -24.36 -0.75 -18.25
v -24.36 -0.75 18.23
v -23.36 -0.75 18.23
v -23.36 -0.75 -18.25
v -23.36 -0.75 18.23
v -23.36 4.25 18.23
v -23.36 4.25 -18.25
v -23.36 -0.75 -18.25
v -24.36 -0.75 -18.25
v -24.36 4.25 -18.25
v -24.36 4.25 18.23
v -24.36 -0.75 18.23

vn 0 0 1
vn 0 0 1
vn 0 0 1
vn 0 0 1
vn 0 1 0
vn 0 1 0
vn 0 0 -1
vn 0 0 -1
vn 0 1 0
vn 0 1 0
vn 0 0 -1
vn 0 0 -1
vn 0 -1 0
vn 0 -1 0
vn 0 -1 0
vn 0 -1 0
vn 1 0 0
vn 1 0 0
vn 1 0 0
vn 1 0 0
vn -1 0 0
vn -1 0 0
vn -1 0 0
vn -1 0 0

vt 0 0
vt 1 0
vt 0 1
vt 1 1
vt 0 1
vt 1 1
vt 0 1
vt 1 1
vt 0 0
vt 1 0
vt 0 0
vt 1 0
vt 0 0
vt 0 1
vt 1 1
vt 1 0
vt 0 0
vt 0 1
vt 1 1
vt 1 0
vt 0 0
vt 0 1
vt 1 1
vt 1 0

usemtl Lit
usemap Lit
f 603/603/603 601/601/601 604/604/604
f 604/604/604 601/601/601 602/602/602
f 605/605/605 609/609/609 606/606/606
f 606/606/606 609/609/609 610/610/610
f 607/607/607 611/611/611 608/608/608
f 608/608/608 611/611/611 612/612/612
f 614/614/614 613/613/613 615/615/615
f 615/615/615 613/613/613 616/616/616
f 618/618/618 617/617/617 619/619/619
f 619/619/619 617/617/617 620/620/620
f 622/622/622 621/621/621 623/623/623
f 623/623/623 621/621/621 624/624/624
mtllib ./Map1.mtl
g Cube (4)
v 8.30816 -0.75 19.60564
v 8.968162 -0.75 18.85437
v 8.30816 4.25 19.60564
v 8.968162 4.25 18.85437
v 4.551839 4.25 16.30563
v 5.211841 4.25 15.55436
v 4.551839 -0.75 16.30563
v 5.211841 -0.75 15.55436
v 8.30816 4.25 19.60564
v 8.968162 4.25 18.85437
v 4.551839 4.25 16.30563
v 5.211841 4.25 15.55436
v 4.551839 -0.75 16.30563
v 8.30816 -0.75 19.60564
v 8.968162 -0.75 18.85437
v 5.211841 -0.75 15.55436
v 8.968162 -0.75 18.85437
v 8.968162 4.25 18.85437
v 5.211841 4.25 15.55436
v 5.211841 -0.75 15.55436
v 4.551839 -0.75 16.30563
v 4.551839 4.25 16.30563
v 8.30816 4.25 19.60564
v 8.30816 -0.75 19.60564

vn 0.7512641 0 0.6600018
vn 0.7512641 0 0.6600018
vn 0.7512641 0 0.6600018
vn 0.7512641 0 0.6600018
vn 0 1 0
vn 0 1 0
vn -0.7512641 0 -0.6600018
vn -0.7512641 0 -0.6600018
vn 0 1 0
vn 0 1 0
vn -0.7512641 0 -0.6600018
vn -0.7512641 0 -0.6600018
vn 0 -1 0
vn 0 -1 0
vn 0 -1 0
vn 0 -1 0
vn 0.6600018 0 -0.7512641
vn 0.6600018 0 -0.7512641
vn 0.6600018 0 -0.7512641
vn 0.6600018 0 -0.7512641
vn -0.6600018 0 0.7512641
vn -0.6600018 0 0.7512641
vn -0.6600018 0 0.7512641
vn -0.6600018 0 0.7512641

vt 0 0
vt 1 0
vt 0 1
vt 1 1
vt 0 1
vt 1 1
vt 0 1
vt 1 1
vt 0 0
vt 1 0
vt 0 0
vt 1 0
vt 0 0
vt 0 1
vt 1 1
vt 1 0
vt 0 0
vt 0 1
vt 1 1
vt 1 0
vt 0 0
vt 0 1
vt 1 1
vt 1 0

usemtl Lit
usemap Lit
f 627/627/627 625/625/625 628/628/628
f 628/628/628 625/625/625 626/626/626
f 629/629/629 633/633/633 630/630/630
f 630/630/630 633/633/633 634/634/634
f 631/631/631 635/635/635 632/632/632
f 632/632/632 635/635/635 636/636/636
f 638/638/638 637/637/637 639/639/639
f 639/639/639 637/637/637 640/640/640
f 642/642/642 641/641/641 643/643/643
f 643/643/643 641/641/641 644/644/644
f 646/646/646 645/645/645 647/647/647
f 647/647/647 645/645/645 648/648/648
mtllib ./Map1.mtl
g Cube (13)
v 17.88 -0.3 10.23
v 19.88 -0.3 10.23
v 17.88 2.7 10.23
v 19.88 2.7 10.23
v 17.88 2.7 8.43
v 19.88 2.7 8.43
v 17.88 -0.3 8.43
v 19.88 -0.3 8.43
v 17.88 2.7 10.23
v 19.88 2.7 10.23
v 17.88 2.7 8.43
v 19.88 2.7 8.43
v 17.88 -0.3 8.43
v 17.88 -0.3 10.23
v 19.88 -0.3 10.23
v 19.88 -0.3 8.43
v 19.88 -0.3 10.23
v 19.88 2.7 10.23
v 19.88 2.7 8.43
v 19.88 -0.3 8.43
v 17.88 -0.3 8.43
v 17.88 2.7 8.43
v 17.88 2.7 10.23
v 17.88 -0.3 10.23

vn 0 0 1
vn 0 0 1
vn 0 0 1
vn 0 0 1
vn 0 1 0
vn 0 1 0
vn 0 0 -1
vn 0 0 -1
vn 0 1 0
vn 0 1 0
vn 0 0 -1
vn 0 0 -1
vn 0 -1 0
vn 0 -1 0
vn 0 -1 0
vn 0 -1 0
vn 1 0 0
vn 1 0 0
vn 1 0 0
vn 1 0 0
vn -1 0 0
vn -1 0 0
vn -1 0 0
vn -1 0 0

vt 0 0
vt 1 0
vt 0 1
vt 1 1
vt 0 1
vt 1 1
vt 0 1
vt 1 1
vt 0 0
vt 1 0
vt 0 0
vt 1 0
vt 0 0
vt 0 1
vt 1 1
vt 1 0
vt 0 0
vt 0 1
vt 1 1
vt 1 0
vt 0 0
vt 0 1
vt 1 1
vt 1 0

usemtl Lit
usemap Lit
f 651/651/651 649/649/649 652/652/652
f 652/652/652 649/649/649 650/650/650
f 653/653/653 657/657/657 654/654/654
f 654/654/654 657/657/657 658/658/658
f 655/655/655 659/659/659 656/656/656
f 656/656/656 659/659/659 660/660/660
f 662/662/662 661/661/661 663/663/663
f 663/663/663 661/661/661 664/664/664
f 666/666/666 665/665/665 667/667/667
f 667/667/667 665/665/665 668/668/668
f 670/670/670 669/669/669 671/671/671
f 671/671/671 669/669/669 672/672/672
mtllib ./Map1.mtl
g Cube
v 23.05 -0.75 18.23
v 24.05 -0.75 18.23
v 23.05 4.25 18.23
v 24.05 4.25 18.23
v 23.05 4.25 -18.25
v 24.05 4.25 -18.25
v 23.05 -0.75 -18.25
v 24.05 -0.75 -18.25
v 23.05 4.25 18.23
v 24.05 4.25 18.23
v 23.05 4.25 -18.25
v 24.05 4.25 -18.25
v 23.05 -0.75 -18.25
v 23.05 -0.75 18.23
v 24.05 -0.75 18.23
v 24.05 -0.75 -18.25
v 24.05 -0.75 18.23
v 24.05 4.25 18.23
v 24.05 4.25 -18.25
v 24.05 -0.75 -18.25
v 23.05 -0.75 -18.25
v 23.05 4.25 -18.25
v 23.05 4.25 18.23
v 23.05 -0.75 18.23

vn 0 0 1
vn 0 0 1
vn 0 0 1
vn 0 0 1
vn 0 1 0
vn 0 1 0
vn 0 0 -1
vn 0 0 -1
vn 0 1 0
vn 0 1 0
vn 0 0 -1
vn 0 0 -1
vn 0 -1 0
vn 0 -1 0
vn 0 -1 0
vn 0 -1 0
vn 1 0 0
vn 1 0 0
vn 1 0 0
vn 1 0 0
vn -1 0 0
vn -1 0 0
vn -1 0 0
vn -1 0 0

vt 0 0
vt 1 0
vt 0 1
vt 1 1
vt 0 1
vt 1 1
vt 0 1
vt 1 1
vt 0 0
vt 1 0
vt 0 0
vt 1 0
vt 0 0
vt 0 1
vt 1 1
vt 1 0
vt 0 0
vt 0 1
vt 1 1
vt 1 0
vt 0 0
vt 0 1
vt 1 1
vt 1 0

usemtl Lit
usemap Lit
f 675/675/675 673/673/673 676/676/676
f 676/676/676 673/673/673 674/674/674
f 677/677/677 681/681/681 678/678/678
f 678/678/678 681/681/681 682/682/682
f 679/679/679 683/683/683 680/680/680
f 680/680/680 683/683/683 684/684/684
f 686/686/686 685/685/685 687/687/687
f 687/687/687 685/685/685 688/688/688
f 690/690/690 689/689/689 691/691/691
f 691/691/691 689/689/689 692/692/692
f 694/694/694 693/693/693 695/695/695
f 695/695/695 693/693/693 696/696/696
mtllib ./Map1.mtl
g Cube (12)
v 21.02 -0.3 14.79
v 21.52 -0.3 14.79
v 21.02 2.7 14.79
v 21.52 2.7 14.79
v 21.02 2.7 10.79
v 21.52 2.7 10.79
v 21.02 -0.3 10.79
v 21.52 -0.3 10.79
v 21.02 2.7 14.79
v 21.52 2.7 14.79
v 21.02 2.7 10.79
v 21.52 2.7 10.79
v 21.02 -0.3 10.79
v 21.02 -0.3 14.79
v 21.52 -0.3 14.79
v 21.52 -0.3 10.79
v 21.52 -0.3 14.79
v 21.52 2.7 14.79
v 21.52 2.7 10.79
v 21.52 -0.3 10.79
v 21.02 -0.3 10.79
v 21.02 2.7 10.79
v 21.02 2.7 14.79
v 21.02 -0.3 14.79

vn 0 0 1
vn 0 0 1
vn 0 0 1
vn 0 0 1
vn 0 1 0
vn 0 1 0
vn 0 0 -1
vn 0 0 -1
vn 0 1 0
vn 0 1 0
vn 0 0 -1
vn 0 0 -1
vn 0 -1 0
vn 0 -1 0
vn 0 -1 0
vn 0 -1 0
vn 1 0 0
vn 1 0 0
vn 1 0 0
vn 1 0 0
vn -1 0 0
vn -1 0 0
vn -1 0 0
vn -1 0 0

vt 0 0
vt 1 0
vt 0 1
vt 1 1
vt 0 1
vt 1 1
vt 0 1
vt 1 1
vt 0 0
vt 1 0
vt 0 0
vt 1 0
vt 0 0
vt 0 1
vt 1 1
vt 1 0
vt 0 0
vt 0 1
vt 1 1
vt 1 0
vt 0 0
vt 0 1
vt 1 1
vt 1 0

usemtl Lit
usemap Lit
f 699/699/699 697/697/697 700/700/700
f 700/700/700 697/697/697 698/698/698
f 701/701/701 705/705/705 702/702/702
f 702/702/702 705/705/705 706/706/706
f 703/703/703 707/707/707 704/704/704
f 704/704/704 707/707/707 708/708/708
f 710/710/710 709/709/709 711/711/711
f 711/711/711 709/709/709 712/712/712
f 714/714/714 713/713/713 715/715/715
f 715/715/715 713/713/713 716/716/716
f 718/718/718 717/717/717 719/719/719
f 719/719/719 717/717/717 720/720/720
mtllib ./Map1.mtl
g Cube (9)
v 11.39 -0.3 17.49
v 11.89 -0.3 17.49
v 11.39 2.7 17.49
v 11.89 2.7 17.49
v 11.39 2.7 11.49
v 11.89 2.7 11.49
v 11.39 -0.3 11.49
v 11.89 -0.3 11.49
v 11.39 2.7 17.49
v 11.89 2.7 17.49
v 11.39 2.7 11.49
v 11.89 2.7 11.49
v 11.39 -0.3 11.49
v 11.39 -0.3 17.49
v 11.89 -0.3 17.49
v 11.89 -0.3 11.49
v 11.89 -0.3 17.49
v 11.89 2.7 17.49
v 11.89 2.7 11.49
v 11.89 -0.3 11.49
v 11.39 -0.3 11.49
v 11.39 2.7 11.49
v 11.39 2.7 17.49
v 11.39 -0.3 17.49

vn 0 0 1
vn 0 0 1
vn 0 0 1
vn 0 0 1
vn 0 1 0
vn 0 1 0
vn 0 0 -1
vn 0 0 -1
vn 0 1 0
vn 0 1 0
vn 0 0 -1
vn 0 0 -1
vn 0 -1 0
vn 0 -1 0
vn 0 -1 0
vn 0 -1 0
vn 1 0 0
vn 1 0 0
vn 1 0 0
vn 1 0 0
vn -1 0 0
vn -1 0 0
vn -1 0 0
vn -1 0 0

vt 0 0
vt 1 0
vt 0 1
vt 1 1
vt 0 1
vt 1 1
vt 0 1
vt 1 1
vt 0 0
vt 1 0
vt 0 0
vt 1 0
vt 0 0
vt 0 1
vt 1 1
vt 1 0
vt 0 0
vt 0 1
vt 1 1
vt 1 0
vt 0 0
vt 0 1
vt 1 1
vt 1 0

usemtl Lit
usemap Lit
f 723/723/723 721/721/721 724/724/724
f 724/724/724 721/721/721 722/722/722
f 725/725/725 729/729/729 726/726/726
f 726/726/726 729/729/729 730/730/730
f 727/727/727 731/731/731 728/728/728
f 728/728/728 731/731/731 732/732/732
f 734/734/734 733/733/733 735/735/735
f 735/735/735 733/733/733 736/736/736
f 738/738/738 737/737/737 739/739/739
f 739/739/739 737/737/737 740/740/740
f 742/742/742 741/741/741 743/743/743
f 743/743/743 741/741/741 744/744/744
mtllib ./Map1.mtl
g Cube (10)
v 11.81 -0.3 17.52
v 18.11 -0.3 17.52
v 11.81 2.7 17.52
v 18.11 2.7 17.52
v 11.81 2.7 17.02
v 18.11 2.7 17.02
v 11.81 -0.3 17.02
v 18.11 -0.3 17.02
v 11.81 2.7 17.52
v 18.11 2.7 17.52
v 11.81 2.7 17.02
v 18.11 2.7 17.02
v 11.81 -0.3 17.02
v 11.81 -0.3 17.52
v 18.11 -0.3 17.52
v 18.11 -0.3 17.02
v 18.11 -0.3 17.52
v 18.11 2.7 17.52
v 18.11 2.7 17.02
v 18.11 -0.3 17.02
v 11.81 -0.3 17.02
v 11.81 2.7 17.02
v 11.81 2.7 17.52
v 11.81 -0.3 17.52

vn 0 0 1
vn 0 0 1
vn 0 0 1
vn 0 0 1
vn 0 1 0
vn 0 1 0
vn 0 0 -1
vn 0 0 -1
vn 0 1 0
vn 0 1 0
vn 0 0 -1
vn 0 0 -1
vn 0 -1 0
vn 0 -1 0
vn 0 -1 0
vn 0 -1 0
vn 1 0 0
vn 1 0 0
vn 1 0 0
vn 1 0 0
vn -1 0 0
vn -1 0 0
vn -1 0 0
vn -1 0 0

vt 0 0
vt 1 0
vt 0 1
vt 1 1
vt 0 1
vt 1 1
vt 0 1
vt 1 1
vt 0 0
vt 1 0
vt 0 0
vt 1 0
vt 0 0
vt 0 1
vt 1 1
vt 1 0
vt 0 0
vt 0 1
vt 1 1
vt 1 0
vt 0 0
vt 0 1
vt 1 1
vt 1 0

usemtl Lit
usemap Lit
f 747/747/747 745/745/745 748/748/748
f 748/748/748 745/745/745 746/746/746
f 749/749/749 753/753/753 750/750/750
f 750/750/750 753/753/753 754/754/754
f 751/751/751 755/755/755 752/752/752
f 752/752/752 755/755/755 756/756/756
f 758/758/758 757/757/757 759/759/759
f 759/759/759 757/757/757 760/760/760
f 762/762/762 761/761/761 763/763/763
f 763/763/763 761/761/761 764/764/764
f 766/766/766 765/765/765 767/767/767
f 767/767/767 765/765/765 768/768/768
mtllib ./Map1.mtl
g Cube (7)
v 12.03476 -0.3 11.46656
v 13.01812 -0.3 12.46305
v 12.03476 2.7 11.46656
v 13.01812 2.7 12.46305
v 14.88188 2.7 8.65695
v 15.86524 2.7 9.653443
v 14.88188 -0.3 8.65695
v 15.86524 -0.3 9.653443
v 12.03476 2.7 11.46656
v 13.01812 2.7 12.46305
v 14.88188 2.7 8.65695
v 15.86524 2.7 9.653443
v 14.88188 -0.3 8.65695
v 12.03476 -0.3 11.46656
v 13.01812 -0.3 12.46305
v 15.86524 -0.3 9.653443
v 13.01812 -0.3 12.46305
v 13.01812 2.7 12.46305
v 15.86524 2.7 9.653443
v 15.86524 -0.3 9.653443
v 14.88188 -0.3 8.65695
v 14.88188 2.7 8.65695
v 12.03476 2.7 11.46656
v 12.03476 -0.3 11.46656

vn -0.7117808 0 0.7024016
vn -0.7117808 0 0.7024016
vn -0.7117808 0 0.7024016
vn -0.7117808 0 0.7024016
vn 0 1 0
vn 0 1 0
vn 0.7117808 0 -0.7024016
vn 0.7117808 0 -0.7024016
vn 0 1 0
vn 0 1 0
vn 0.7117808 0 -0.7024016
vn 0.7117808 0 -0.7024016
vn 0 -1 0
vn 0 -1 0
vn 0 -1 0
vn 0 -1 0
vn 0.7024016 0 0.7117808
vn 0.7024016 0 0.7117808
vn 0.7024016 0 0.7117808
vn 0.7024016 0 0.7117808
vn -0.7024016 0 -0.7117808
vn -0.7024016 0 -0.7117808
vn -0.7024016 0 -0.7117808
vn -0.7024016 0 -0.7117808

vt 0 0
vt 1 0
vt 0 1
vt 1 1
vt 0 1
vt 1 1
vt 0 1
vt 1 1
vt 0 0
vt 1 0
vt 0 0
vt 1 0
vt 0 0
vt 0 1
vt 1 1
vt 1 0
vt 0 0
vt 0 1
vt 1 1
vt 1 0
vt 0 0
vt 0 1
vt 1 1
vt 1 0

usemtl Lit
usemap Lit
f 771/771/771 769/769/769 772/772/772
f 772/772/772 769/769/769 770/770/770
f 773/773/773 777/777/777 774/774/774
f 774/774/774 777/777/777 778/778/778
f 775/775/775 779/779/779 776/776/776
f 776/776/776 779/779/779 780/780/780
f 782/782/782 781/781/781 783/783/783
f 783/783/783 781/781/781 784/784/784
f 786/786/786 785/785/785 787/787/787
f 787/787/787 785/785/785 788/788/788
f 790/790/790 789/789/789 791/791/791
f 791/791/791 789/789/789 792/792/792
mtllib ./Map1.mtl
g Cube (6)
v 15.03 -0.3 10.4
v 17.03 -0.3 10.4
v 15.03 2.7 10.4
v 17.03 2.7 10.4
v 15.03 2.7 8.6
v 17.03 2.7 8.6
v 15.03 -0.3 8.6
v 17.03 -0.3 8.6
v 15.03 2.7 10.4
v 17.03 2.7 10.4
v 15.03 2.7 8.6
v 17.03 2.7 8.6
v 15.03 -0.3 8.6
v 15.03 -0.3 10.4
v 17.03 -0.3 10.4
v 17.03 -0.3 8.6
v 17.03 -0.3 10.4
v 17.03 2.7 10.4
v 17.03 2.7 8.6
v 17.03 -0.3 8.6
v 15.03 -0.3 8.6
v 15.03 2.7 8.6
v 15.03 2.7 10.4
v 15.03 -0.3 10.4

vn 0 0 1
vn 0 0 1
vn 0 0 1
vn 0 0 1
vn 0 1 0
vn 0 1 0
vn 0 0 -1
vn 0 0 -1
vn 0 1 0
vn 0 1 0
vn 0 0 -1
vn 0 0 -1
vn 0 -1 0
vn 0 -1 0
vn 0 -1 0
vn 0 -1 0
vn 1 0 0
vn 1 0 0
vn 1 0 0
vn 1 0 0
vn -1 0 0
vn -1 0 0
vn -1 0 0
vn -1 0 0

vt 0 0
vt 1 0
vt 0 1
vt 1 1
vt 0 1
vt 1 1
vt 0 1
vt 1 1
vt 0 0
vt 1 0
vt 0 0
vt 1 0
vt 0 0
vt 0 1
vt 1 1
vt 1 0
vt 0 0
vt 0 1
vt 1 1
vt 1 0
vt 0 0
vt 0 1
vt 1 1
vt 1 0

usemtl Lit
usemap Lit
f 795/795/795 793/793/793 796/796/796
f 796/796/796 793/793/793 794/794/794
f 797/797/797 801/801/801 798/798/798
f 798/798/798 801/801/801 802/802/802
f 799/799/799 803/803/803 800/800/800
f 800/800/800 803/803/803 804/804/804
f 806/806/806 805/805/805 807/807/807
f 807/807/807 805/805/805 808/808/808
f 810/810/810 809/809/809 811/811/811
f 811/811/811 809/809/809 812/812/812
f 814/814/814 813/813/813 815/815/815
f 815/815/815 813/813/813 816/816/816
mtllib ./Map1.mtl
g Ground
v 30.7 3.814697E-06 -25
v -29.3 3.814697E-06 -25
v 30.7 -3.814697E-06 25
v -29.3 -3.814697E-06 25

vn 0 1 1.192093E-07
vn 0 1 1.192093E-07
vn 0 1 1.192093E-07
vn 0 1 1.192093E-07

vt 0 0
vt 1 0
vt 0 1
vt 1 1

usemtl Lit
usemap Lit
f 820/820/820 817/817/817 818/818/818
f 817/817/817 820/820/820 819/819/819
mtllib ./Map1.mtl
g Cube (1)
v -24.56 -0.75 -16.42
v -24.56 -0.75 -15.42
v -24.56 4.25 -16.42
v -24.56 4.25 -15.42
v 25.44 4.25 -16.42
v 25.44 4.25 -15.42
v 25.44 -0.75 -16.42
v 25.44 -0.75 -15.42
v -24.56 4.25 -16.42
v -24.56 4.25 -15.42
v 25.44 4.25 -16.42
v 25.44 4.25 -15.42
v 25.44 -0.75 -16.42
v -24.56 -0.75 -16.42
v -24.56 -0.75 -15.42
v 25.44 -0.75 -15.42
v -24.56 -0.75 -15.42
v -24.56 4.25 -15.42
v 25.44 4.25 -15.42
v 25.44 -0.75 -15.42
v 25.44 -0.75 -16.42
v 25.44 4.25 -16.42
v -24.56 4.25 -16.42
v -24.56 -0.75 -16.42

vn -1 0 -1.192093E-07
vn -1 0 -1.192093E-07
vn -1 0 -1.192093E-07
vn -1 0 -1.192093E-07
vn 0 1 0
vn 0 1 0
vn 1 0 1.192093E-07
vn 1 0 1.192093E-07
vn 0 1 0
vn 0 1 0
vn 1 0 1.192093E-07
vn 1 0 1.192093E-07
vn 0 -1 0
vn 0 -1 0
vn 0 -1 0
vn 0 -1 0
vn -1.192093E-07 0 1
vn -1.192093E-07 0 1
vn -1.192093E-07 0 1
vn -1.192093E-07 0 1
vn 1.192093E-07 0 -1
vn 1.192093E-07 0 -1
vn 1.192093E-07 0 -1
vn 1.192093E-07 0 -1

vt 0 0
vt 1 0
vt 0 1
vt 1 1
vt 0 1
vt 1 1
vt 0 1
vt 1 1
vt 0 0
vt 1 0
vt 0 0
vt 1 0
vt 0 0
vt 0 1
vt 1 1
vt 1 0
vt 0 0
vt 0 1
vt 1 1
vt 1 0
vt 0 0
vt 0 1
vt 1 1
vt 1 0

usemtl Lit
usemap Lit
f 823/823/823 821/821/821 824/824/824
f 824/824/824 821/821/821 822/822/822
f 825/825/825 829/829/829 826/826/826
f 826/826/826 829/829/829 830/830/830
f 827/827/827 831/831/831 828/828/828
f 828/828/828 831/831/831 832/832/832
f 834/834/834 833/833/833 835/835/835
f 835/835/835 833/833/833 836/836/836
f 838/838/838 837/837/837 839/839/839
f 839/839/839 837/837/837 840/840/840
f 842/842/842 841/841/841 843/843/843
f 843/843/843 841/841/841 844/844/844
mtllib ./Map1.mtl
g Cube (3)
v -34.5 -0.75 15.61
v -34.5 -0.75 16.61
v -34.5 4.25 15.61
v -34.5 4.25 16.61
v 5.500002 4.25 15.61
v 5.500002 4.25 16.61
v 5.500002 -0.75 15.61
v 5.500002 -0.75 16.61
v -34.5 4.25 15.61
v -34.5 4.25 16.61
v 5.500002 4.25 15.61
v 5.500002 4.25 16.61
v 5.500002 -0.75 15.61
v -34.5 -0.75 15.61
v -34.5 -0.75 16.61
v 5.500002 -0.75 16.61
v -34.5 -0.75 16.61
v -34.5 4.25 16.61
v 5.500002 4.25 16.61
v 5.500002 -0.75 16.61
v 5.500002 -0.75 15.61
v 5.500002 4.25 15.61
v -34.5 4.25 15.61
v -34.5 -0.75 15.61

vn -1 0 -1.192093E-07
vn -1 0 -1.192093E-07
vn -1 0 -1.192093E-07
vn -1 0 -1.192093E-07
vn 0 1 0
vn 0 1 0
vn 1 0 1.192093E-07
vn 1 0 1.192093E-07
vn 0 1 0
vn 0 1 0
vn 1 0 1.192093E-07
vn 1 0 1.192093E-07
vn 0 -1 0
vn 0 -1 0
vn 0 -1 0
vn 0 -1 0
vn -1.192093E-07 0 1
vn -1.192093E-07 0 1
vn -1.192093E-07 0 1
vn -1.192093E-07 0 1
vn 1.192093E-07 0 -1
vn 1.192093E-07 0 -1
vn 1.192093E-07 0 -1
vn 1.192093E-07 0 -1

vt 0 0
vt 1 0
vt 0 1
vt 1 1
vt 0 1
vt 1 1
vt 0 1
vt 1 1
vt 0 0
vt 1 0
vt 0 0
vt 1 0
vt 0 0
vt 0 1
vt 1 1
vt 1 0
vt 0 0
vt 0 1
vt 1 1
vt 1 0
vt 0 0
vt 0 1
vt 1 1
vt 1 0

usemtl Lit
usemap Lit
f 847/847/847 845/845/845 848/848/848
f 848/848/848 845/845/845 846/846/846
f 849/849/849 853/853/853 850/850/850
f 850/850/850 853/853/853 854/854/854
f 851/851/851 855/855/855 852/852/852
f 852/852/852 855/855/855 856/856/856
f 858/858/858 857/857/857 859/859/859
f 859/859/859 857/857/857 860/860/860
f 862/862/862 861/861/861 863/863/863
f 863/863/863 861/861/861 864/864/864
f 866/866/866 865/865/865 867/867/867
f 867/867/867 865/865/865 868/868/868
mtllib ./Map1.mtl
g Cube (5)
v 24.38556 -0.75 19.43255
v 24.37282 -0.75 18.43263
v 24.38556 4.25 19.43255
v 24.37282 4.25 18.43263
v 4.387181 4.25 19.68736
v 4.37444 4.25 18.68744
v 4.387181 -0.75 19.68736
v 4.37444 -0.75 18.68744
v 24.38556 4.25 19.43255
v 24.37282 4.25 18.43263
v 4.387181 4.25 19.68736
v 4.37444 4.25 18.68744
v 4.387181 -0.75 19.68736
v 24.38556 -0.75 19.43255
v 24.37282 -0.75 18.43263
v 4.37444 -0.75 18.68744
v 24.37282 -0.75 18.43263
v 24.37282 4.25 18.43263
v 4.37444 4.25 18.68744
v 4.37444 -0.75 18.68744
v 4.387181 -0.75 19.68736
v 4.387181 4.25 19.68736
v 24.38556 4.25 19.43255
v 24.38556 -0.75 19.43255

vn 0.9999189 0 -0.01274049
vn 0.9999189 0 -0.01274049
vn 0.9999189 0 -0.01274049
vn 0.9999189 0 -0.01274049
vn 0 1 0
vn 0 1 0
vn -0.9999189 0 0.01274049
vn -0.9999189 0 0.01274049
vn 0 1 0
vn 0 1 0
vn -0.9999189 0 0.01274049
vn -0.9999189 0 0.01274049
vn 0 -1 0
vn 0 -1 0
vn 0 -1 0
vn 0 -1 0
vn -0.01274049 0 -0.9999189
vn -0.01274049 0 -0.9999189
vn -0.01274049 0 -0.9999189
vn -0.01274049 0 -0.9999189
vn 0.01274049 0 0.9999189
vn 0.01274049 0 0.9999189
vn 0.01274049 0 0.9999189
vn 0.01274049 0 0.9999189

vt 0 0
vt 1 0
vt 0 1
vt 1 1
vt 0 1
vt 1 1
vt 0 1
vt 1 1
vt 0 0
vt 1 0
vt 0 0
vt 1 0
vt 0 0
vt 0 1
vt 1 1
vt 1 0
vt 0 0
vt 0 1
vt 1 1
vt 1 0
vt 0 0
vt 0 1
vt 1 1
vt 1 0

usemtl Lit
usemap Lit
f 871/871/871 869/869/869 872/872/872
f 872/872/872 869/869/869 870/870/870
f 873/873/873 877/877/877 874/874/874
f 874/874/874 877/877/877 878/878/878
f 875/875/875 879/879/879 876/876/876
f 876/876/876 879/879/879 880/880/880
f 882/882/882 881/881/881 883/883/883
f 883/883/883 881/881/881 884/884/884
f 886/886/886 885/885/885 887/887/887
f 887/887/887 885/885/885 888/888/888
f 890/890/890 889/889/889 891/891/891
f 891/891/891 889/889/889 892/892/892
mtllib ./Map1.mtl
g Cube (8)
v 11.28617 -0.3 12.19528
v 12.31786 -0.3 13.14165
v 11.28617 2.7 12.19528
v 12.31786 2.7 13.14165
v 11.96214 2.7 11.45835
v 12.99383 2.7 12.40472
v 11.96214 -0.3 11.45835
v 12.99383 -0.3 12.40472
v 11.28617 2.7 12.19528
v 12.31786 2.7 13.14165
v 11.96214 2.7 11.45835
v 12.99383 2.7 12.40472
v 11.96214 -0.3 11.45835
v 11.28617 -0.3 12.19528
v 12.31786 -0.3 13.14165
v 12.99383 -0.3 12.40472
v 12.31786 -0.3 13.14165
v 12.31786 2.7 13.14165
v 12.99383 2.7 12.40472
v 12.99383 -0.3 12.40472
v 11.96214 -0.3 11.45835
v 11.96214 2.7 11.45835
v 11.28617 2.7 12.19528
v 11.28617 -0.3 12.19528

vn -0.6759761 0 0.7369236
vn -0.6759761 0 0.7369236
vn -0.6759761 0 0.7369236
vn -0.6759761 0 0.7369236
vn 0 1 0
vn 0 1 0
vn 0.6759761 0 -0.7369236
vn 0.6759761 0 -0.7369236
vn 0 1 0
vn 0 1 0
vn 0.6759761 0 -0.7369236
vn 0.6759761 0 -0.7369236
vn 0 -1 0
vn 0 -1 0
vn 0 -1 0
vn 0 -1 0
vn 0.7369236 0 0.6759761
vn 0.7369236 0 0.6759761
vn 0.7369236 0 0.6759761
vn 0.7369236 0 0.6759761
vn -0.7369236 0 -0.6759761
vn -0.7369236 0 -0.6759761
vn -0.7369236 0 -0.6759761
vn -0.7369236 0 -0.6759761

vt 0 0
vt 1 0
vt 0 1
vt 1 1
vt 0 1
vt 1 1
vt 0 1
vt 1 1
vt 0 0
vt 1 0
vt 0 0
vt 1 0
vt 0 0
vt 0 1
vt 1 1
vt 1 0
vt 0 0
vt 0 1
vt 1 1
vt 1 0
vt 0 0
vt 0 1
vt 1 1
vt 1 0

usemtl Lit
usemap Lit
f 895/895/895 893/893/893 896/896/896
f 896/896/896 893/893/893 894/894/894
f 897/897/897 901/901/901 898/898/898
f 898/898/898 901/901/901 902/902/902
f 899/899/899 903/903/903 900/900/900
f 900/900/900 903/903/903 904/904/904
f 906/906/906 905/905/905 907/907/907
f 907/907/907 905/905/905 908/908/908
f 910/910/910 909/909/909 911/911/911
f 911/911/911 909/909/909 912/912/912
f 914/914/914 913/913/913 915/915/915
f 915/915/915 913/913/913 916/916/916
mtllib ./Map1.mtl
g Cube (11)
v 18.27232 -0.3 17.5352
v 21.24257 -0.3 14.85608
v 18.27232 2.7 17.5352
v 21.24257 2.7 14.85608
v 17.93744 2.7 17.16392
v 20.90768 2.7 14.4848
v 17.93744 -0.3 17.16392
v 20.90768 -0.3 14.4848
v 18.27232 2.7 17.5352
v 21.24257 2.7 14.85608
v 17.93744 2.7 17.16392
v 20.90768 2.7 14.4848
v 17.93744 -0.3 17.16392
v 18.27232 -0.3 17.5352
v 21.24257 -0.3 14.85608
v 20.90768 -0.3 14.4848
v 21.24257 -0.3 14.85608
v 21.24257 2.7 14.85608
v 20.90768 2.7 14.4848
v 20.90768 -0.3 14.4848
v 17.93744 -0.3 17.16392
v 17.93744 2.7 17.16392
v 18.27232 2.7 17.5352
v 18.27232 -0.3 17.5352

vn 0.6697789 0 0.7425606
vn 0.6697789 0 0.7425606
vn 0.6697789 0 0.7425606
vn 0.6697789 0 0.7425606
vn 0 1 0
vn 0 1 0
vn -0.6697789 0 -0.7425606
vn -0.6697789 0 -0.7425606
vn 0 1 0
vn 0 1 0
vn -0.6697789 0 -0.7425606
vn -0.6697789 0 -0.7425606
vn 0 -1 0
vn 0 -1 0
vn 0 -1 0
vn 0 -1 0
vn 0.7425606 0 -0.6697789
vn 0.7425606 0 -0.6697789
vn 0.7425606 0 -0.6697789
vn 0.7425606 0 -0.6697789
vn -0.7425606 0 0.6697789
vn -0.7425606 0 0.6697789
vn -0.7425606 0 0.6697789
vn -0.7425606 0 0.6697789

vt 0 0
vt 1 0
vt 0 1
vt 1 1
vt 0 1
vt 1 1
vt 0 1
vt 1 1
vt 0 0
vt 1 0
vt 0 0
vt 1 0
vt 0 0
vt 0 1
vt 1 1
vt 1 0
vt 0 0
vt 0 1
vt 1 1
vt 1 0
vt 0 0
vt 0 1
vt 1 1
vt 1 0

usemtl Lit
usemap Lit
f 919/919/919 917/917/917 920/920/920
f 920/920/920 917/917/917 918/918/918
f 921/921/921 925/925/925 922/922/922
f 922/922/922 925/925/925 926/926/926
f 923/923/923 927/927/927 924/924/924
f 924/924/924 927/927/927 928/928/928
f 930/930/930 929/929/929 931/931/931
f 931/931/931 929/929/929 932/932/932
f 934/934/934 933/933/933 935/935/935
f 935/935/935 933/933/933 936/936/936
f 938/938/938 937/937/937 939/939/939
f 939/939/939 937/937/937 940/940/940
mtllib ./Map1.mtl
g Cube (14)
v 19.36784 -0.3 9.750229
v 20.82363 -0.3 11.12161
v 19.36784 2.7 9.750229
v 20.82363 2.7 11.12161
v 20.39638 2.7 8.65839
v 21.85216 2.7 10.02977
v 20.39638 -0.3 8.65839
v 21.85216 -0.3 10.02977
v 19.36784 2.7 9.750229
v 20.82363 2.7 11.12161
v 20.39638 2.7 8.65839
v 21.85216 2.7 10.02977
v 20.39638 -0.3 8.65839
v 19.36784 -0.3 9.750229
v 20.82363 -0.3 11.12161
v 21.85216 -0.3 10.02977
v 20.82363 -0.3 11.12161
v 20.82363 2.7 11.12161
v 21.85216 2.7 10.02977
v 21.85216 -0.3 10.02977
v 20.39638 -0.3 8.65839
v 20.39638 2.7 8.65839
v 19.36784 2.7 9.750229
v 19.36784 -0.3 9.750229

vn -0.6856913 0 0.7278925
vn -0.6856913 0 0.7278925
vn -0.6856913 0 0.7278925
vn -0.6856913 0 0.7278925
vn 0 1 0
vn 0 1 0
vn 0.6856913 0 -0.7278925
vn 0.6856913 0 -0.7278925
vn 0 1 0
vn 0 1 0
vn 0.6856913 0 -0.7278925
vn 0.6856913 0 -0.7278925
vn 0 -1 0
vn 0 -1 0
vn 0 -1 0
vn 0 -1 0
vn 0.7278925 0 0.6856913
vn 0.7278925 0 0.6856913
vn 0.7278925 0 0.6856913
vn 0.7278925 0 0.6856913
vn -0.7278925 0 -0.6856913
vn -0.7278925 0 -0.6856913
vn -0.7278925 0 -0.6856913
vn -0.7278925 0 -0.6856913

vt 0 0
vt 1 0
vt 0 1
vt 1 1
vt 0 1
vt 1 1
vt 0 1
vt 1 1
vt 0 0
vt 1 0
vt 0 0
vt 1 0
vt 0 0
vt 0 1
vt 1 1
vt 1 0
vt 0 0
vt 0 1
vt 1 1
vt 1 0
vt 0 0
vt 0 1
vt 1 1
vt 1 0

usemtl Lit
usemap Lit
f 943/943/943 941/941/941 944/944/944
f 944/944/944 941/941/941 942/942/942
f 945/945/945 949/949/949 946/946/946
f 946/946/946 949/949/949 950/950/950
f 947/947/947 951/951/951 948/948/948
f 948/948/948 951/951/951 952/952/952
f 954/954/954 953/953/953 955/955/955
f 955/955/955 953/953/953 956/956/956
f 958/958/958 957/957/957 959/959/959
f 959/959/959 957/957/957 960/960/960
f 962/962/962 961/961/961 963/963/963
f 963/963/963 961/961/961 964/964/964
