mtllib ./Map2.mtl
g Cube (1)
v 5.17 -3 6.32
v 6.17 -3 6.32
v 5.17 3 6.32
v 6.17 3 6.32
v 5.17 3 3.32
v 6.17 3 3.32
v 5.17 -3 3.32
v 6.17 -3 3.32
v 5.17 3 6.32
v 6.17 3 6.32
v 5.17 3 3.32
v 6.17 3 3.32
v 5.17 -3 3.32
v 5.17 -3 6.32
v 6.17 -3 6.32
v 6.17 -3 3.32
v 6.17 -3 6.32
v 6.17 3 6.32
v 6.17 3 3.32
v 6.17 -3 3.32
v 5.17 -3 3.32
v 5.17 3 3.32
v 5.17 3 6.32
v 5.17 -3 6.32

vn 0 0 1
vn 0 0 1
vn 0 0 1
vn 0 0 1
vn 0 1 0
vn 0 1 0
vn 0 0 -1
vn 0 0 -1
vn 0 1 0
vn 0 1 0
vn 0 0 -1
vn 0 0 -1
vn 0 -1 0
vn 0 -1 0
vn 0 -1 0
vn 0 -1 0
vn 1 0 0
vn 1 0 0
vn 1 0 0
vn 1 0 0
vn -1 0 0
vn -1 0 0
vn -1 0 0
vn -1 0 0

vt 0 0
vt 1 0
vt 0 1
vt 1 1
vt 0 1
vt 1 1
vt 0 1
vt 1 1
vt 0 0
vt 1 0
vt 0 0
vt 1 0
vt 0 0
vt 0 1
vt 1 1
vt 1 0
vt 0 0
vt 0 1
vt 1 1
vt 1 0
vt 0 0
vt 0 1
vt 1 1
vt 1 0

usemtl Lit
usemap Lit
f 3/3/3 1/1/1 4/4/4
f 4/4/4 1/1/1 2/2/2
f 5/5/5 9/9/9 6/6/6
f 6/6/6 9/9/9 10/10/10
f 7/7/7 11/11/11 8/8/8
f 8/8/8 11/11/11 12/12/12
f 14/14/14 13/13/13 15/15/15
f 15/15/15 13/13/13 16/16/16
f 18/18/18 17/17/17 19/19/19
f 19/19/19 17/17/17 20/20/20
f 22/22/22 21/21/21 23/23/23
f 23/23/23 21/21/21 24/24/24
mtllib ./Map2.mtl
g Cube (19)
v -10.09 -3 2.85
v -9.09 -3 2.85
v -10.09 3 2.85
v -9.09 3 2.85
v -10.09 3 0.85
v -9.09 3 0.85
v -10.09 -3 0.85
v -9.09 -3 0.85
v -10.09 3 2.85
v -9.09 3 2.85
v -10.09 3 0.85
v -9.09 3 0.85
v -10.09 -3 0.85
v -10.09 -3 2.85
v -9.09 -3 2.85
v -9.09 -3 0.85
v -9.09 -3 2.85
v -9.09 3 2.85
v -9.09 3 0.85
v -9.09 -3 0.85
v -10.09 -3 0.85
v -10.09 3 0.85
v -10.09 3 2.85
v -10.09 -3 2.85

vn 0 0 1
vn 0 0 1
vn 0 0 1
vn 0 0 1
vn 0 1 0
vn 0 1 0
vn 0 0 -1
vn 0 0 -1
vn 0 1 0
vn 0 1 0
vn 0 0 -1
vn 0 0 -1
vn 0 -1 0
vn 0 -1 0
vn 0 -1 0
vn 0 -1 0
vn 1 0 0
vn 1 0 0
vn 1 0 0
vn 1 0 0
vn -1 0 0
vn -1 0 0
vn -1 0 0
vn -1 0 0

vt 0 0
vt 1 0
vt 0 1
vt 1 1
vt 0 1
vt 1 1
vt 0 1
vt 1 1
vt 0 0
vt 1 0
vt 0 0
vt 1 0
vt 0 0
vt 0 1
vt 1 1
vt 1 0
vt 0 0
vt 0 1
vt 1 1
vt 1 0
vt 0 0
vt 0 1
vt 1 1
vt 1 0

usemtl Lit
usemap Lit
f 27/27/27 25/25/25 28/28/28
f 28/28/28 25/25/25 26/26/26
f 29/29/29 33/33/33 30/30/30
f 30/30/30 33/33/33 34/34/34
f 31/31/31 35/35/35 32/32/32
f 32/32/32 35/35/35 36/36/36
f 38/38/38 37/37/37 39/39/39
f 39/39/39 37/37/37 40/40/40
f 42/42/42 41/41/41 43/43/43
f 43/43/43 41/41/41 44/44/44
f 46/46/46 45/45/45 47/47/47
f 47/47/47 45/45/45 48/48/48
mtllib ./Map2.mtl
g Cube (8)
v 4.52 -3 4.61
v 5.52 -3 4.61
v 4.52 3 4.61
v 5.52 3 4.61
v 4.52 3 3.61
v 5.52 3 3.61
v 4.52 -3 3.61
v 5.52 -3 3.61
v 4.52 3 4.61
v 5.52 3 4.61
v 4.52 3 3.61
v 5.52 3 3.61
v 4.52 -3 3.61
v 4.52 -3 4.61
v 5.52 -3 4.61
v 5.52 -3 3.61
v 5.52 -3 4.61
v 5.52 3 4.61
v 5.52 3 3.61
v 5.52 -3 3.61
v 4.52 -3 3.61
v 4.52 3 3.61
v 4.52 3 4.61
v 4.52 -3 4.61

vn 0 0 1
vn 0 0 1
vn 0 0 1
vn 0 0 1
vn 0 1 0
vn 0 1 0
vn 0 0 -1
vn 0 0 -1
vn 0 1 0
vn 0 1 0
vn 0 0 -1
vn 0 0 -1
vn 0 -1 0
vn 0 -1 0
vn 0 -1 0
vn 0 -1 0
vn 1 0 0
vn 1 0 0
vn 1 0 0
vn 1 0 0
vn -1 0 0
vn -1 0 0
vn -1 0 0
vn -1 0 0

vt 0 0
vt 1 0
vt 0 1
vt 1 1
vt 0 1
vt 1 1
vt 0 1
vt 1 1
vt 0 0
vt 1 0
vt 0 0
vt 1 0
vt 0 0
vt 0 1
vt 1 1
vt 1 0
vt 0 0
vt 0 1
vt 1 1
vt 1 0
vt 0 0
vt 0 1
vt 1 1
vt 1 0

usemtl Lit
usemap Lit
f 51/51/51 49/49/49 52/52/52
f 52/52/52 49/49/49 50/50/50
f 53/53/53 57/57/57 54/54/54
f 54/54/54 57/57/57 58/58/58
f 55/55/55 59/59/59 56/56/56
f 56/56/56 59/59/59 60/60/60
f 62/62/62 61/61/61 63/63/63
f 63/63/63 61/61/61 64/64/64
f 66/66/66 65/65/65 67/67/67
f 67/67/67 65/65/65 68/68/68
f 70/70/70 69/69/69 71/71/71
f 71/71/71 69/69/69 72/72/72
mtllib ./Map2.mtl
g Cube (27)
v 0.6799999 -3 0.65
v 1.68 -3 0.65
v 0.6799999 3 0.65
v 1.68 3 0.65
v 0.6799999 3 -1.35
v 1.68 3 -1.35
v 0.6799999 -3 -1.35
v 1.68 -3 -1.35
v 0.6799999 3 0.65
v 1.68 3 0.65
v 0.6799999 3 -1.35
v 1.68 3 -1.35
v 0.6799999 -3 -1.35
v 0.6799999 -3 0.65
v 1.68 -3 0.65
v 1.68 -3 -1.35
v 1.68 -3 0.65
v 1.68 3 0.65
v 1.68 3 -1.35
v 1.68 -3 -1.35
v 0.6799999 -3 -1.35
v 0.6799999 3 -1.35
v 0.6799999 3 0.65
v 0.6799999 -3 0.65

vn 0 0 1
vn 0 0 1
vn 0 0 1
vn 0 0 1
vn 0 1 0
vn 0 1 0
vn 0 0 -1
vn 0 0 -1
vn 0 1 0
vn 0 1 0
vn 0 0 -1
vn 0 0 -1
vn 0 -1 0
vn 0 -1 0
vn 0 -1 0
vn 0 -1 0
vn 1 0 0
vn 1 0 0
vn 1 0 0
vn 1 0 0
vn -1 0 0
vn -1 0 0
vn -1 0 0
vn -1 0 0

vt 0 0
vt 1 0
vt 0 1
vt 1 1
vt 0 1
vt 1 1
vt 0 1
vt 1 1
vt 0 0
vt 1 0
vt 0 0
vt 1 0
vt 0 0
vt 0 1
vt 1 1
vt 1 0
vt 0 0
vt 0 1
vt 1 1
vt 1 0
vt 0 0
vt 0 1
vt 1 1
vt 1 0

usemtl Lit
usemap Lit
f 75/75/75 73/73/73 76/76/76
f 76/76/76 73/73/73 74/74/74
f 77/77/77 81/81/81 78/78/78
f 78/78/78 81/81/81 82/82/82
f 79/79/79 83/83/83 80/80/80
f 80/80/80 83/83/83 84/84/84
f 86/86/86 85/85/85 87/87/87
f 87/87/87 85/85/85 88/88/88
f 90/90/90 89/89/89 91/91/91
f 91/91/91 89/89/89 92/92/92
f 94/94/94 93/93/93 95/95/95
f 95/95/95 93/93/93 96/96/96
mtllib ./Map2.mtl
g Cube (11)
v -1.04 -3 4.92
v -0.04000002 -3 4.92
v -1.04 3 4.92
v -0.04000002 3 4.92
v -1.04 3 3.92
v -0.04000002 3 3.92
v -1.04 -3 3.92
v -0.04000002 -3 3.92
v -1.04 3 4.92
v -0.04000002 3 4.92
v -1.04 3 3.92
v -0.04000002 3 3.92
v -1.04 -3 3.92
v -1.04 -3 4.92
v -0.04000002 -3 4.92
v -0.04000002 -3 3.92
v -0.04000002 -3 4.92
v -0.04000002 3 4.92
v -0.04000002 3 3.92
v -0.04000002 -3 3.92
v -1.04 -3 3.92
v -1.04 3 3.92
v -1.04 3 4.92
v -1.04 -3 4.92

vn 0 0 1
vn 0 0 1
vn 0 0 1
vn 0 0 1
vn 0 1 0
vn 0 1 0
vn 0 0 -1
vn 0 0 -1
vn 0 1 0
vn 0 1 0
vn 0 0 -1
vn 0 0 -1
vn 0 -1 0
vn 0 -1 0
vn 0 -1 0
vn 0 -1 0
vn 1 0 0
vn 1 0 0
vn 1 0 0
vn 1 0 0
vn -1 0 0
vn -1 0 0
vn -1 0 0
vn -1 0 0

vt 0 0
vt 1 0
vt 0 1
vt 1 1
vt 0 1
vt 1 1
vt 0 1
vt 1 1
vt 0 0
vt 1 0
vt 0 0
vt 1 0
vt 0 0
vt 0 1
vt 1 1
vt 1 0
vt 0 0
vt 0 1
vt 1 1
vt 1 0
vt 0 0
vt 0 1
vt 1 1
vt 1 0

usemtl Lit
usemap Lit
f 99/99/99 97/97/97 100/100/100
f 100/100/100 97/97/97 98/98/98
f 101/101/101 105/105/105 102/102/102
f 102/102/102 105/105/105 106/106/106
f 103/103/103 107/107/107 104/104/104
f 104/104/104 107/107/107 108/108/108
f 110/110/110 109/109/109 111/111/111
f 111/111/111 109/109/109 112/112/112
f 114/114/114 113/113/113 115/115/115
f 115/115/115 113/113/113 116/116/116
f 118/118/118 117/117/117 119/119/119
f 119/119/119 117/117/117 120/120/120
mtllib ./Map2.mtl
g Cube (12)
v 1.28 -3 0.61
v 5.28 -3 0.61
v 1.28 3 0.61
v 5.28 3 0.61
v 1.28 3 -0.39
v 5.28 3 -0.39
v 1.28 -3 -0.39
v 5.28 -3 -0.39
v 1.28 3 0.61
v 5.28 3 0.61
v 1.28 3 -0.39
v 5.28 3 -0.39
v 1.28 -3 -0.39
v 1.28 -3 0.61
v 5.28 -3 0.61
v 5.28 -3 -0.39
v 5.28 -3 0.61
v 5.28 3 0.61
v 5.28 3 -0.39
v 5.28 -3 -0.39
v 1.28 -3 -0.39
v 1.28 3 -0.39
v 1.28 3 0.61
v 1.28 -3 0.61

vn 0 0 1
vn 0 0 1
vn 0 0 1
vn 0 0 1
vn 0 1 0
vn 0 1 0
vn 0 0 -1
vn 0 0 -1
vn 0 1 0
vn 0 1 0
vn 0 0 -1
vn 0 0 -1
vn 0 -1 0
vn 0 -1 0
vn 0 -1 0
vn 0 -1 0
vn 1 0 0
vn 1 0 0
vn 1 0 0
vn 1 0 0
vn -1 0 0
vn -1 0 0
vn -1 0 0
vn -1 0 0

vt 0 0
vt 1 0
vt 0 1
vt 1 1
vt 0 1
vt 1 1
vt 0 1
vt 1 1
vt 0 0
vt 1 0
vt 0 0
vt 1 0
vt 0 0
vt 0 1
vt 1 1
vt 1 0
vt 0 0
vt 0 1
vt 1 1
vt 1 0
vt 0 0
vt 0 1
vt 1 1
vt 1 0

usemtl Lit
usemap Lit
f 123/123/123 121/121/121 124/124/124
f 124/124/124 121/121/121 122/122/122
f 125/125/125 129/129/129 126/126/126
f 126/126/126 129/129/129 130/130/130
f 127/127/127 131/131/131 128/128/128
f 128/128/128 131/131/131 132/132/132
f 134/134/134 133/133/133 135/135/135
f 135/135/135 133/133/133 136/136/136
f 138/138/138 137/137/137 139/139/139
f 139/139/139 137/137/137 140/140/140
f 142/142/142 141/141/141 143/143/143
f 143/143/143 141/141/141 144/144/144
mtllib ./Map2.mtl
g Cube (20)
v -10.06 -3 1.32
v -9.06 -3 1.32
v -10.06 3 1.32
v -9.06 3 1.32
v -10.06 3 -0.68
v -9.06 3 -0.68
v -10.06 -3 -0.68
v -9.06 -3 -0.68
v -10.06 3 1.32
v -9.06 3 1.32
v -10.06 3 -0.68
v -9.06 3 -0.68
v -10.06 -3 -0.68
v -10.06 -3 1.32
v -9.06 -3 1.32
v -9.06 -3 -0.68
v -9.06 -3 1.32
v -9.06 3 1.32
v -9.06 3 -0.68
v -9.06 -3 -0.68
v -10.06 -3 -0.68
v -10.06 3 -0.68
v -10.06 3 1.32
v -10.06 -3 1.32

vn 0 0 1
vn 0 0 1
vn 0 0 1
vn 0 0 1
vn 0 1 0
vn 0 1 0
vn 0 0 -1
vn 0 0 -1
vn 0 1 0
vn 0 1 0
vn 0 0 -1
vn 0 0 -1
vn 0 -1 0
vn 0 -1 0
vn 0 -1 0
vn 0 -1 0
vn 1 0 0
vn 1 0 0
vn 1 0 0
vn 1 0 0
vn -1 0 0
vn -1 0 0
vn -1 0 0
vn -1 0 0

vt 0 0
vt 1 0
vt 0 1
vt 1 1
vt 0 1
vt 1 1
vt 0 1
vt 1 1
vt 0 0
vt 1 0
vt 0 0
vt 1 0
vt 0 0
vt 0 1
vt 1 1
vt 1 0
vt 0 0
vt 0 1
vt 1 1
vt 1 0
vt 0 0
vt 0 1
vt 1 1
vt 1 0

usemtl Lit
usemap Lit
f 147/147/147 145/145/145 148/148/148
f 148/148/148 145/145/145 146/146/146
f 149/149/149 153/153/153 150/150/150
f 150/150/150 153/153/153 154/154/154
f 151/151/151 155/155/155 152/152/152
f 152/152/152 155/155/155 156/156/156
f 158/158/158 157/157/157 159/159/159
f 159/159/159 157/157/157 160/160/160
f 162/162/162 161/161/161 163/163/163
f 163/163/163 161/161/161 164/164/164
f 166/166/166 165/165/165 167/167/167
f 167/167/167 165/165/165 168/168/168
mtllib ./Map2.mtl
g Cube (21)
v -9.63 -3 -0.13
v -7.63 -3 -0.13
v -9.63 3 -0.13
v -7.63 3 -0.13
v -9.63 3 -1.13
v -7.63 3 -1.13
v -9.63 -3 -1.13
v -7.63 -3 -1.13
v -9.63 3 -0.13
v -7.63 3 -0.13
v -9.63 3 -1.13
v -7.63 3 -1.13
v -9.63 -3 -1.13
v -9.63 -3 -0.13
v -7.63 -3 -0.13
v -7.63 -3 -1.13
v -7.63 -3 -0.13
v -7.63 3 -0.13
v -7.63 3 -1.13
v -7.63 -3 -1.13
v -9.63 -3 -1.13
v -9.63 3 -1.13
v -9.63 3 -0.13
v -9.63 -3 -0.13

vn 0 0 1
vn 0 0 1
vn 0 0 1
vn 0 0 1
vn 0 1 0
vn 0 1 0
vn 0 0 -1
vn 0 0 -1
vn 0 1 0
vn 0 1 0
vn 0 0 -1
vn 0 0 -1
vn 0 -1 0
vn 0 -1 0
vn 0 -1 0
vn 0 -1 0
vn 1 0 0
vn 1 0 0
vn 1 0 0
vn 1 0 0
vn -1 0 0
vn -1 0 0
vn -1 0 0
vn -1 0 0

vt 0 0
vt 1 0
vt 0 1
vt 1 1
vt 0 1
vt 1 1
vt 0 1
vt 1 1
vt 0 0
vt 1 0
vt 0 0
vt 1 0
vt 0 0
vt 0 1
vt 1 1
vt 1 0
vt 0 0
vt 0 1
vt 1 1
vt 1 0
vt 0 0
vt 0 1
vt 1 1
vt 1 0

usemtl Lit
usemap Lit
f 171/171/171 169/169/169 172/172/172
f 172/172/172 169/169/169 170/170/170
f 173/173/173 177/177/177 174/174/174
f 174/174/174 177/177/177 178/178/178
f 175/175/175 179/179/179 176/176/176
f 176/176/176 179/179/179 180/180/180
f 182/182/182 181/181/181 183/183/183
f 183/183/183 181/181/181 184/184/184
f 186/186/186 185/185/185 187/187/187
f 187/187/187 185/185/185 188/188/188
f 190/190/190 189/189/189 191/191/191
f 191/191/191 189/189/189 192/192/192
mtllib ./Map2.mtl
g Cube (7)
v 1.72 -3 3.97
v 5.72 -3 3.97
v 1.72 3 3.97
v 5.72 3 3.97
v 1.72 3 2.97
v 5.72 3 2.97
v 1.72 -3 2.97
v 5.72 -3 2.97
v 1.72 3 3.97
v 5.72 3 3.97
v 1.72 3 2.97
v 5.72 3 2.97
v 1.72 -3 2.97
v 1.72 -3 3.97
v 5.72 -3 3.97
v 5.72 -3 2.97
v 5.72 -3 3.97
v 5.72 3 3.97
v 5.72 3 2.97
v 5.72 -3 2.97
v 1.72 -3 2.97
v 1.72 3 2.97
v 1.72 3 3.97
v 1.72 -3 3.97

vn 0 0 1
vn 0 0 1
vn 0 0 1
vn 0 0 1
vn 0 1 0
vn 0 1 0
vn 0 0 -1
vn 0 0 -1
vn 0 1 0
vn 0 1 0
vn 0 0 -1
vn 0 0 -1
vn 0 -1 0
vn 0 -1 0
vn 0 -1 0
vn 0 -1 0
vn 1 0 0
vn 1 0 0
vn 1 0 0
vn 1 0 0
vn -1 0 0
vn -1 0 0
vn -1 0 0
vn -1 0 0

vt 0 0
vt 1 0
vt 0 1
vt 1 1
vt 0 1
vt 1 1
vt 0 1
vt 1 1
vt 0 0
vt 1 0
vt 0 0
vt 1 0
vt 0 0
vt 0 1
vt 1 1
vt 1 0
vt 0 0
vt 0 1
vt 1 1
vt 1 0
vt 0 0
vt 0 1
vt 1 1
vt 1 0

usemtl Lit
usemap Lit
f 195/195/195 193/193/193 196/196/196
f 196/196/196 193/193/193 194/194/194
f 197/197/197 201/201/201 198/198/198
f 198/198/198 201/201/201 202/202/202
f 199/199/199 203/203/203 200/200/200
f 200/200/200 203/203/203 204/204/204
f 206/206/206 205/205/205 207/207/207
f 207/207/207 205/205/205 208/208/208
f 210/210/210 209/209/209 211/211/211
f 211/211/211 209/209/209 212/212/212
f 214/214/214 213/213/213 215/215/215
f 215/215/215 213/213/213 216/216/216
mtllib ./Map2.mtl
g Cube (23)
v -7.687689 -3 -0.4368943
v -4.203519 -3 1.527937
v -7.687689 3 -0.4368943
v -4.203519 3 1.527937
v -7.196481 3 -1.307937
v -3.712311 3 0.6568943
v -7.196481 -3 -1.307937
v -3.712311 -3 0.6568943
v -7.687689 3 -0.4368943
v -4.203519 3 1.527937
v -7.196481 3 -1.307937
v -3.712311 3 0.6568943
v -7.196481 -3 -1.307937
v -7.687689 -3 -0.4368943
v -4.203519 -3 1.527937
v -3.712311 -3 0.6568943
v -4.203519 -3 1.527937
v -4.203519 3 1.527937
v -3.712311 3 0.6568943
v -3.712311 -3 0.6568943
v -7.196481 -3 -1.307937
v -7.196481 3 -1.307937
v -7.687689 3 -0.4368943
v -7.687689 -3 -0.4368943

vn -0.4912078 0 0.8710424
vn -0.4912078 0 0.8710424
vn -0.4912078 0 0.8710424
vn -0.4912078 0 0.8710424
vn 0 1 0
vn 0 1 0
vn 0.4912078 0 -0.8710424
vn 0.4912078 0 -0.8710424
vn 0 1 0
vn 0 1 0
vn 0.4912078 0 -0.8710424
vn 0.4912078 0 -0.8710424
vn 0 -1 0
vn 0 -1 0
vn 0 -1 0
vn 0 -1 0
vn 0.8710424 0 0.4912078
vn 0.8710424 0 0.4912078
vn 0.8710424 0 0.4912078
vn 0.8710424 0 0.4912078
vn -0.8710424 0 -0.4912078
vn -0.8710424 0 -0.4912078
vn -0.8710424 0 -0.4912078
vn -0.8710424 0 -0.4912078

vt 0 0
vt 1 0
vt 0 1
vt 1 1
vt 0 1
vt 1 1
vt 0 1
vt 1 1
vt 0 0
vt 1 0
vt 0 0
vt 1 0
vt 0 0
vt 0 1
vt 1 1
vt 1 0
vt 0 0
vt 0 1
vt 1 1
vt 1 0
vt 0 0
vt 0 1
vt 1 1
vt 1 0

usemtl Lit
usemap Lit
f 219/219/219 217/217/217 220/220/220
f 220/220/220 217/217/217 218/218/218
f 221/221/221 225/225/225 222/222/222
f 222/222/222 225/225/225 226/226/226
f 223/223/223 227/227/227 224/224/224
f 224/224/224 227/227/227 228/228/228
f 230/230/230 229/229/229 231/231/231
f 231/231/231 229/229/229 232/232/232
f 234/234/234 233/233/233 235/235/235
f 235/235/235 233/233/233 236/236/236
f 238/238/238 237/237/237 239/239/239
f 239/239/239 237/237/237 240/240/240
mtllib ./Map2.mtl
g Cube (18)
v -9.36 -3 3.99
v -8.36 -3 3.99
v -9.36 3 3.99
v -8.36 3 3.99
v -9.36 3 1.99
v -8.36 3 1.99
v -9.36 -3 1.99
v -8.36 -3 1.99
v -9.36 3 3.99
v -8.36 3 3.99
v -9.36 3 1.99
v -8.36 3 1.99
v -9.36 -3 1.99
v -9.36 -3 3.99
v -8.36 -3 3.99
v -8.36 -3 1.99
v -8.36 -3 3.99
v -8.36 3 3.99
v -8.36 3 1.99
v -8.36 -3 1.99
v -9.36 -3 1.99
v -9.36 3 1.99
v -9.36 3 3.99
v -9.36 -3 3.99

vn 0 0 1
vn 0 0 1
vn 0 0 1
vn 0 0 1
vn 0 1 0
vn 0 1 0
vn 0 0 -1
vn 0 0 -1
vn 0 1 0
vn 0 1 0
vn 0 0 -1
vn 0 0 -1
vn 0 -1 0
vn 0 -1 0
vn 0 -1 0
vn 0 -1 0
vn 1 0 0
vn 1 0 0
vn 1 0 0
vn 1 0 0
vn -1 0 0
vn -1 0 0
vn -1 0 0
vn -1 0 0

vt 0 0
vt 1 0
vt 0 1
vt 1 1
vt 0 1
vt 1 1
vt 0 1
vt 1 1
vt 0 0
vt 1 0
vt 0 0
vt 1 0
vt 0 0
vt 0 1
vt 1 1
vt 1 0
vt 0 0
vt 0 1
vt 1 1
vt 1 0
vt 0 0
vt 0 1
vt 1 1
vt 1 0

usemtl Lit
usemap Lit
f 243/243/243 241/241/241 244/244/244
f 244/244/244 241/241/241 242/242/242
f 245/245/245 249/249/249 246/246/246
f 246/246/246 249/249/249 250/250/250
f 247/247/247 251/251/251 248/248/248
f 248/248/248 251/251/251 252/252/252
f 254/254/254 253/253/253 255/255/255
f 255/255/255 253/253/253 256/256/256
f 258/258/258 257/257/257 259/259/259
f 259/259/259 257/257/257 260/260/260
f 262/262/262 261/261/261 263/263/263
f 263/263/263 261/261/261 264/264/264
mtllib ./Map2.mtl
g Cube
v 5.02 -3 3.13
v 6.02 -3 3.13
v 5.02 3 3.13
v 6.02 3 3.13
v 5.02 3 0.13
v 6.02 3 0.13
v 5.02 -3 0.13
v 6.02 -3 0.13
v 5.02 3 3.13
v 6.02 3 3.13
v 5.02 3 0.13
v 6.02 3 0.13
v 5.02 -3 0.13
v 5.02 -3 3.13
v 6.02 -3 3.13
v 6.02 -3 0.13
v 6.02 -3 3.13
v 6.02 3 3.13
v 6.02 3 0.13
v 6.02 -3 0.13
v 5.02 -3 0.13
v 5.02 3 0.13
v 5.02 3 3.13
v 5.02 -3 3.13

vn 0 0 1
vn 0 0 1
vn 0 0 1
vn 0 0 1
vn 0 1 0
vn 0 1 0
vn 0 0 -1
vn 0 0 -1
vn 0 1 0
vn 0 1 0
vn 0 0 -1
vn 0 0 -1
vn 0 -1 0
vn 0 -1 0
vn 0 -1 0
vn 0 -1 0
vn 1 0 0
vn 1 0 0
vn 1 0 0
vn 1 0 0
vn -1 0 0
vn -1 0 0
vn -1 0 0
vn -1 0 0

vt 0 0
vt 1 0
vt 0 1
vt 1 1
vt 0 1
vt 1 1
vt 0 1
vt 1 1
vt 0 0
vt 1 0
vt 0 0
vt 1 0
vt 0 0
vt 0 1
vt 1 1
vt 1 0
vt 0 0
vt 0 1
vt 1 1
vt 1 0
vt 0 0
vt 0 1
vt 1 1
vt 1 0

usemtl Lit
usemap Lit
f 267/267/267 265/265/265 268/268/268
f 268/268/268 265/265/265 266/266/266
f 269/269/269 273/273/273 270/270/270
f 270/270/270 273/273/273 274/274/274
f 271/271/271 275/275/275 272/272/272
f 272/272/272 275/275/275 276/276/276
f 278/278/278 277/277/277 279/279/279
f 279/279/279 277/277/277 280/280/280
f 282/282/282 281/281/281 283/283/283
f 283/283/283 281/281/281 284/284/284
f 286/286/286 285/285/285 287/287/287
f 287/287/287 285/285/285 288/288/288
mtllib ./Map2.mtl
g Cube (30)
v -3.6 -3 -5.63
v 0.4 -3 -5.63
v -3.6 3 -5.63
v 0.4 3 -5.63
v -3.6 3 -6.63
v 0.4 3 -6.63
v -3.6 -3 -6.63
v 0.4 -3 -6.63
v -3.6 3 -5.63
v 0.4 3 -5.63
v -3.6 3 -6.63
v 0.4 3 -6.63
v -3.6 -3 -6.63
v -3.6 -3 -5.63
v 0.4 -3 -5.63
v 0.4 -3 -6.63
v 0.4 -3 -5.63
v 0.4 3 -5.63
v 0.4 3 -6.63
v 0.4 -3 -6.63
v -3.6 -3 -6.63
v -3.6 3 -6.63
v -3.6 3 -5.63
v -3.6 -3 -5.63

vn 0 0 1
vn 0 0 1
vn 0 0 1
vn 0 0 1
vn 0 1 0
vn 0 1 0
vn 0 0 -1
vn 0 0 -1
vn 0 1 0
vn 0 1 0
vn 0 0 -1
vn 0 0 -1
vn 0 -1 0
vn 0 -1 0
vn 0 -1 0
vn 0 -1 0
vn 1 0 0
vn 1 0 0
vn 1 0 0
vn 1 0 0
vn -1 0 0
vn -1 0 0
vn -1 0 0
vn -1 0 0

vt 0 0
vt 1 0
vt 0 1
vt 1 1
vt 0 1
vt 1 1
vt 0 1
vt 1 1
vt 0 0
vt 1 0
vt 0 0
vt 1 0
vt 0 0
vt 0 1
vt 1 1
vt 1 0
vt 0 0
vt 0 1
vt 1 1
vt 1 0
vt 0 0
vt 0 1
vt 1 1
vt 1 0

usemtl Lit
usemap Lit
f 291/291/291 289/289/289 292/292/292
f 292/292/292 289/289/289 290/290/290
f 293/293/293 297/297/297 294/294/294
f 294/294/294 297/297/297 298/298/298
f 295/295/295 299/299/299 296/296/296
f 296/296/296 299/299/299 300/300/300
f 302/302/302 301/301/301 303/303/303
f 303/303/303 301/301/301 304/304/304
f 306/306/306 305/305/305 307/307/307
f 307/307/307 305/305/305 308/308/308
f 310/310/310 309/309/309 311/311/311
f 311/311/311 309/309/309 312/312/312
mtllib ./Map2.mtl
g Cube (4)
v 0.3199999 -3 9.78
v 5.32 -3 9.78
v 0.3199999 3 9.78
v 5.32 3 9.78
v 0.3199999 3 8.78
v 5.32 3 8.78
v 0.3199999 -3 8.78
v 5.32 -3 8.78
v 0.3199999 3 9.78
v 5.32 3 9.78
v 0.3199999 3 8.78
v 5.32 3 8.78
v 0.3199999 -3 8.78
v 0.3199999 -3 9.78
v 5.32 -3 9.78
v 5.32 -3 8.78
v 5.32 -3 9.78
v 5.32 3 9.78
v 5.32 3 8.78
v 5.32 -3 8.78
v 0.3199999 -3 8.78
v 0.3199999 3 8.78
v 0.3199999 3 9.78
v 0.3199999 -3 9.78

vn 0 0 1
vn 0 0 1
vn 0 0 1
vn 0 0 1
vn 0 1 0
vn 0 1 0
vn 0 0 -1
vn 0 0 -1
vn 0 1 0
vn 0 1 0
vn 0 0 -1
vn 0 0 -1
vn 0 -1 0
vn 0 -1 0
vn 0 -1 0
vn 0 -1 0
vn 1 0 0
vn 1 0 0
vn 1 0 0
vn 1 0 0
vn -1 0 0
vn -1 0 0
vn -1 0 0
vn -1 0 0

vt 0 0
vt 1 0
vt 0 1
vt 1 1
vt 0 1
vt 1 1
vt 0 1
vt 1 1
vt 0 0
vt 1 0
vt 0 0
vt 1 0
vt 0 0
vt 0 1
vt 1 1
vt 1 0
vt 0 0
vt 0 1
vt 1 1
vt 1 0
vt 0 0
vt 0 1
vt 1 1
vt 1 0

usemtl Lit
usemap Lit
f 315/315/315 313/313/313 316/316/316
f 316/316/316 313/313/313 314/314/314
f 317/317/317 321/321/321 318/318/318
f 318/318/318 321/321/321 322/322/322
f 319/319/319 323/323/323 320/320/320
f 320/320/320 323/323/323 324/324/324
f 326/326/326 325/325/325 327/327/327
f 327/327/327 325/325/325 328/328/328
f 330/330/330 329/329/329 331/331/331
f 331/331/331 329/329/329 332/332/332
f 334/334/334 333/333/333 335/335/335
f 335/335/335 333/333/333 336/336/336
mtllib ./Map2.mtl
g Cube (10)
v -0.32 -3 4.28
v 0.68 -3 4.28
v -0.32 3 4.28
v 0.68 3 4.28
v -0.32 3 3.28
v 0.68 3 3.28
v -0.32 -3 3.28
v 0.68 -3 3.28
v -0.32 3 4.28
v 0.68 3 4.28
v -0.32 3 3.28
v 0.68 3 3.28
v -0.32 -3 3.28
v -0.32 -3 4.28
v 0.68 -3 4.28
v 0.68 -3 3.28
v 0.68 -3 4.28
v 0.68 3 4.28
v 0.68 3 3.28
v 0.68 -3 3.28
v -0.32 -3 3.28
v -0.32 3 3.28
v -0.32 3 4.28
v -0.32 -3 4.28

vn 0 0 1
vn 0 0 1
vn 0 0 1
vn 0 0 1
vn 0 1 0
vn 0 1 0
vn 0 0 -1
vn 0 0 -1
vn 0 1 0
vn 0 1 0
vn 0 0 -1
vn 0 0 -1
vn 0 -1 0
vn 0 -1 0
vn 0 -1 0
vn 0 -1 0
vn 1 0 0
vn 1 0 0
vn 1 0 0
vn 1 0 0
vn -1 0 0
vn -1 0 0
vn -1 0 0
vn -1 0 0

vt 0 0
vt 1 0
vt 0 1
vt 1 1
vt 0 1
vt 1 1
vt 0 1
vt 1 1
vt 0 0
vt 1 0
vt 0 0
vt 1 0
vt 0 0
vt 0 1
vt 1 1
vt 1 0
vt 0 0
vt 0 1
vt 1 1
vt 1 0
vt 0 0
vt 0 1
vt 1 1
vt 1 0

usemtl Lit
usemap Lit
f 339/339/339 337/337/337 340/340/340
f 340/340/340 337/337/337 338/338/338
f 341/341/341 345/345/345 342/342/342
f 342/342/342 345/345/345 346/346/346
f 343/343/343 347/347/347 344/344/344
f 344/344/344 347/347/347 348/348/348
f 350/350/350 349/349/349 351/351/351
f 351/351/351 349/349/349 352/352/352
f 354/354/354 353/353/353 355/355/355
f 355/355/355 353/353/353 356/356/356
f 358/358/358 357/357/357 359/359/359
f 359/359/359 357/357/357 360/360/360
mtllib ./Map2.mtl
g Cube (22)
v -7.75 -3 -0.29
v -5.75 -3 -0.29
v -7.75 3 -0.29
v -5.75 3 -0.29
v -7.75 3 -1.29
v -5.75 3 -1.29
v -7.75 -3 -1.29
v -5.75 -3 -1.29
v -7.75 3 -0.29
v -5.75 3 -0.29
v -7.75 3 -1.29
v -5.75 3 -1.29
v -7.75 -3 -1.29
v -7.75 -3 -0.29
v -5.75 -3 -0.29
v -5.75 -3 -1.29
v -5.75 -3 -0.29
v -5.75 3 -0.29
v -5.75 3 -1.29
v -5.75 -3 -1.29
v -7.75 -3 -1.29
v -7.75 3 -1.29
v -7.75 3 -0.29
v -7.75 -3 -0.29

vn 0 0 1
vn 0 0 1
vn 0 0 1
vn 0 0 1
vn 0 1 0
vn 0 1 0
vn 0 0 -1
vn 0 0 -1
vn 0 1 0
vn 0 1 0
vn 0 0 -1
vn 0 0 -1
vn 0 -1 0
vn 0 -1 0
vn 0 -1 0
vn 0 -1 0
vn 1 0 0
vn 1 0 0
vn 1 0 0
vn 1 0 0
vn -1 0 0
vn -1 0 0
vn -1 0 0
vn -1 0 0

vt 0 0
vt 1 0
vt 0 1
vt 1 1
vt 0 1
vt 1 1
vt 0 1
vt 1 1
vt 0 0
vt 1 0
vt 0 0
vt 1 0
vt 0 0
vt 0 1
vt 1 1
vt 1 0
vt 0 0
vt 0 1
vt 1 1
vt 1 0
vt 0 0
vt 0 1
vt 1 1
vt 1 0

usemtl Lit
usemap Lit
f 363/363/363 361/361/361 364/364/364
f 364/364/364 361/361/361 362/362/362
f 365/365/365 369/369/369 366/366/366
f 366/366/366 369/369/369 370/370/370
f 367/367/367 371/371/371 368/368/368
f 368/368/368 371/371/371 372/372/372
f 374/374/374 373/373/373 375/375/375
f 375/375/375 373/373/373 376/376/376
f 378/378/378 377/377/377 379/379/379
f 379/379/379 377/377/377 380/380/380
f 382/382/382 381/381/381 383/383/383
f 383/383/383 381/381/381 384/384/384
mtllib ./Map2.mtl
g Cube (29)
v -5.447909 -3 -4.005576
v -4.715486 -3 -3.324728
v -5.447909 3 -4.005576
v -4.715486 3 -3.324728
v -2.724514 3 -6.935273
v -1.992091 3 -6.254424
v -2.724514 -3 -6.935273
v -1.992091 -3 -6.254424
v -5.447909 3 -4.005576
v -4.715486 3 -3.324728
v -2.724514 3 -6.935273
v -1.992091 3 -6.254424
v -2.724514 -3 -6.935273
v -5.447909 -3 -4.005576
v -4.715486 -3 -3.324728
v -1.992091 -3 -6.254424
v -4.715486 -3 -3.324728
v -4.715486 3 -3.324728
v -1.992091 3 -6.254424
v -1.992091 -3 -6.254424
v -2.724514 -3 -6.935273
v -2.724514 3 -6.935273
v -5.447909 3 -4.005576
v -5.447909 -3 -4.005576

vn -0.6808487 0 0.7324241
vn -0.6808487 0 0.7324241
vn -0.6808487 0 0.7324241
vn -0.6808487 0 0.7324241
vn 0 1 0
vn 0 1 0
vn 0.6808487 0 -0.7324241
vn 0.6808487 0 -0.7324241
vn 0 1 0
vn 0 1 0
vn 0.6808487 0 -0.7324241
vn 0.6808487 0 -0.7324241
vn 0 -1 0
vn 0 -1 0
vn 0 -1 0
vn 0 -1 0
vn 0.7324241 0 0.6808487
vn 0.7324241 0 0.6808487
vn 0.7324241 0 0.6808487
vn 0.7324241 0 0.6808487
vn -0.7324241 0 -0.6808487
vn -0.7324241 0 -0.6808487
vn -0.7324241 0 -0.6808487
vn -0.7324241 0 -0.6808487

vt 0 0
vt 1 0
vt 0 1
vt 1 1
vt 0 1
vt 1 1
vt 0 1
vt 1 1
vt 0 0
vt 1 0
vt 0 0
vt 1 0
vt 0 0
vt 0 1
vt 1 1
vt 1 0
vt 0 0
vt 0 1
vt 1 1
vt 1 0
vt 0 0
vt 0 1
vt 1 1
vt 1 0

usemtl Lit
usemap Lit
f 387/387/387 385/385/385 388/388/388
f 388/388/388 385/385/385 386/386/386
f 389/389/389 393/393/393 390/390/390
f 390/390/390 393/393/393 394/394/394
f 391/391/391 395/395/395 392/392/392
f 392/392/392 395/395/395 396/396/396
f 398/398/398 397/397/397 399/399/399
f 399/399/399 397/397/397 400/400/400
f 402/402/402 401/401/401 403/403/403
f 403/403/403 401/401/401 404/404/404
f 406/406/406 405/405/405 407/407/407
f 407/407/407 405/405/405 408/408/408
mtllib ./Map2.mtl
g Cube (9)
v 0.65 -3 3.95
v 1.65 -3 3.95
v 0.65 3 3.95
v 1.65 3 3.95
v 0.65 3 2.95
v 1.65 3 2.95
v 0.65 -3 2.95
v 1.65 -3 2.95
v 0.65 3 3.95
v 1.65 3 3.95
v 0.65 3 2.95
v 1.65 3 2.95
v 0.65 -3 2.95
v 0.65 -3 3.95
v 1.65 -3 3.95
v 1.65 -3 2.95
v 1.65 -3 3.95
v 1.65 3 3.95
v 1.65 3 2.95
v 1.65 -3 2.95
v 0.65 -3 2.95
v 0.65 3 2.95
v 0.65 3 3.95
v 0.65 -3 3.95

vn 0 0 1
vn 0 0 1
vn 0 0 1
vn 0 0 1
vn 0 1 0
vn 0 1 0
vn 0 0 -1
vn 0 0 -1
vn 0 1 0
vn 0 1 0
vn 0 0 -1
vn 0 0 -1
vn 0 -1 0
vn 0 -1 0
vn 0 -1 0
vn 0 -1 0
vn 1 0 0
vn 1 0 0
vn 1 0 0
vn 1 0 0
vn -1 0 0
vn -1 0 0
vn -1 0 0
vn -1 0 0

vt 0 0
vt 1 0
vt 0 1
vt 1 1
vt 0 1
vt 1 1
vt 0 1
vt 1 1
vt 0 0
vt 1 0
vt 0 0
vt 1 0
vt 0 0
vt 0 1
vt 1 1
vt 1 0
vt 0 0
vt 0 1
vt 1 1
vt 1 0
vt 0 0
vt 0 1
vt 1 1
vt 1 0

usemtl Lit
usemap Lit
f 411/411/411 409/409/409 412/412/412
f 412/412/412 409/409/409 410/410/410
f 413/413/413 417/417/417 414/414/414
f 414/414/414 417/417/417 418/418/418
f 415/415/415 419/419/419 416/416/416
f 416/416/416 419/419/419 420/420/420
f 422/422/422 421/421/421 423/423/423
f 423/423/423 421/421/421 424/424/424
f 426/426/426 425/425/425 427/427/427
f 427/427/427 425/425/425 428/428/428
f 430/430/430 429/429/429 431/431/431
f 431/431/431 429/429/429 432/432/432
mtllib ./Map2.mtl
g Cube (14)
v -1.05 -3 0.51
v 1.95 -3 0.51
v -1.05 3 0.51
v 1.95 3 0.51
v -1.05 3 -0.49
v 1.95 3 -0.49
v -1.05 -3 -0.49
v 1.95 -3 -0.49
v -1.05 3 0.51
v 1.95 3 0.51
v -1.05 3 -0.49
v 1.95 3 -0.49
v -1.05 -3 -0.49
v -1.05 -3 0.51
v 1.95 -3 0.51
v 1.95 -3 -0.49
v 1.95 -3 0.51
v 1.95 3 0.51
v 1.95 3 -0.49
v 1.95 -3 -0.49
v -1.05 -3 -0.49
v -1.05 3 -0.49
v -1.05 3 0.51
v -1.05 -3 0.51

vn 0 0 1
vn 0 0 1
vn 0 0 1
vn 0 0 1
vn 0 1 0
vn 0 1 0
vn 0 0 -1
vn 0 0 -1
vn 0 1 0
vn 0 1 0
vn 0 0 -1
vn 0 0 -1
vn 0 -1 0
vn 0 -1 0
vn 0 -1 0
vn 0 -1 0
vn 1 0 0
vn 1 0 0
vn 1 0 0
vn 1 0 0
vn -1 0 0
vn -1 0 0
vn -1 0 0
vn -1 0 0

vt 0 0
vt 1 0
vt 0 1
vt 1 1
vt 0 1
vt 1 1
vt 0 1
vt 1 1
vt 0 0
vt 1 0
vt 0 0
vt 1 0
vt 0 0
vt 0 1
vt 1 1
vt 1 0
vt 0 0
vt 0 1
vt 1 1
vt 1 0
vt 0 0
vt 0 1
vt 1 1
vt 1 0

usemtl Lit
usemap Lit
f 435/435/435 433/433/433 436/436/436
f 436/436/436 433/433/433 434/434/434
f 437/437/437 441/441/441 438/438/438
f 438/438/438 441/441/441 442/442/442
f 439/439/439 443/443/443 440/440/440
f 440/440/440 443/443/443 444/444/444
f 446/446/446 445/445/445 447/447/447
f 447/447/447 445/445/445 448/448/448
f 450/450/450 449/449/449 451/451/451
f 451/451/451 449/449/449 452/452/452
f 454/454/454 453/453/453 455/455/455
f 455/455/455 453/453/453 456/456/456
mtllib ./Map2.mtl
g Cube (3)
v 4.46 -3 10.87
v 5.46 -3 10.87
v 4.46 3 10.87
v 5.46 3 10.87
v 4.46 3 7.87
v 5.46 3 7.87
v 4.46 -3 7.87
v 5.46 -3 7.87
v 4.46 3 10.87
v 5.46 3 10.87
v 4.46 3 7.87
v 5.46 3 7.87
v 4.46 -3 7.87
v 4.46 -3 10.87
v 5.46 -3 10.87
v 5.46 -3 7.87
v 5.46 -3 10.87
v 5.46 3 10.87
v 5.46 3 7.87
v 5.46 -3 7.87
v 4.46 -3 7.87
v 4.46 3 7.87
v 4.46 3 10.87
v 4.46 -3 10.87

vn 0 0 1
vn 0 0 1
vn 0 0 1
vn 0 0 1
vn 0 1 0
vn 0 1 0
vn 0 0 -1
vn 0 0 -1
vn 0 1 0
vn 0 1 0
vn 0 0 -1
vn 0 0 -1
vn 0 -1 0
vn 0 -1 0
vn 0 -1 0
vn 0 -1 0
vn 1 0 0
vn 1 0 0
vn 1 0 0
vn 1 0 0
vn -1 0 0
vn -1 0 0
vn -1 0 0
vn -1 0 0

vt 0 0
vt 1 0
vt 0 1
vt 1 1
vt 0 1
vt 1 1
vt 0 1
vt 1 1
vt 0 0
vt 1 0
vt 0 0
vt 1 0
vt 0 0
vt 0 1
vt 1 1
vt 1 0
vt 0 0
vt 0 1
vt 1 1
vt 1 0
vt 0 0
vt 0 1
vt 1 1
vt 1 0

usemtl Lit
usemap Lit
f 459/459/459 457/457/457 460/460/460
f 460/460/460 457/457/457 458/458/458
f 461/461/461 465/465/465 462/462/462
f 462/462/462 465/465/465 466/466/466
f 463/463/463 467/467/467 464/464/464
f 464/464/464 467/467/467 468/468/468
f 470/470/470 469/469/469 471/471/471
f 471/471/471 469/469/469 472/472/472
f 474/474/474 473/473/473 475/475/475
f 475/475/475 473/473/473 476/476/476
f 478/478/478 477/477/477 479/479/479
f 479/479/479 477/477/477 480/480/480
mtllib ./Map2.mtl
g Cube (16)
v -5.83 -3 4.91
v -2.83 -3 4.91
v -5.83 3 4.91
v -2.83 3 4.91
v -5.83 3 3.91
v -2.83 3 3.91
v -5.83 -3 3.91
v -2.83 -3 3.91
v -5.83 3 4.91
v -2.83 3 4.91
v -5.83 3 3.91
v -2.83 3 3.91
v -5.83 -3 3.91
v -5.83 -3 4.91
v -2.83 -3 4.91
v -2.83 -3 3.91
v -2.83 -3 4.91
v -2.83 3 4.91
v -2.83 3 3.91
v -2.83 -3 3.91
v -5.83 -3 3.91
v -5.83 3 3.91
v -5.83 3 4.91
v -5.83 -3 4.91

vn 0 0 1
vn 0 0 1
vn 0 0 1
vn 0 0 1
vn 0 1 0
vn 0 1 0
vn 0 0 -1
vn 0 0 -1
vn 0 1 0
vn 0 1 0
vn 0 0 -1
vn 0 0 -1
vn 0 -1 0
vn 0 -1 0
vn 0 -1 0
vn 0 -1 0
vn 1 0 0
vn 1 0 0
vn 1 0 0
vn 1 0 0
vn -1 0 0
vn -1 0 0
vn -1 0 0
vn -1 0 0

vt 0 0
vt 1 0
vt 0 1
vt 1 1
vt 0 1
vt 1 1
vt 0 1
vt 1 1
vt 0 0
vt 1 0
vt 0 0
vt 1 0
vt 0 0
vt 0 1
vt 1 1
vt 1 0
vt 0 0
vt 0 1
vt 1 1
vt 1 0
vt 0 0
vt 0 1
vt 1 1
vt 1 0

usemtl Lit
usemap Lit
f 483/483/483 481/481/481 484/484/484
f 484/484/484 481/481/481 482/482/482
f 485/485/485 489/489/489 486/486/486
f 486/486/486 489/489/489 490/490/490
f 487/487/487 491/491/491 488/488/488
f 488/488/488 491/491/491 492/492/492
f 494/494/494 493/493/493 495/495/495
f 495/495/495 493/493/493 496/496/496
f 498/498/498 497/497/497 499/499/499
f 499/499/499 497/497/497 500/500/500
f 502/502/502 501/501/501 503/503/503
f 503/503/503 501/501/501 504/504/504
mtllib ./Map2.mtl
g Cube (26)
v 1.68 -3 -0.0999999
v 3.68 -3 -0.0999999
v 1.68 3 -0.0999999
v 3.68 3 -0.0999999
v 1.68 3 -4.1
v 3.68 3 -4.1
v 1.68 -3 -4.1
v 3.68 -3 -4.1
v 1.68 3 -0.0999999
v 3.68 3 -0.0999999
v 1.68 3 -4.1
v 3.68 3 -4.1
v 1.68 -3 -4.1
v 1.68 -3 -0.0999999
v 3.68 -3 -0.0999999
v 3.68 -3 -4.1
v 3.68 -3 -0.0999999
v 3.68 3 -0.0999999
v 3.68 3 -4.1
v 3.68 -3 -4.1
v 1.68 -3 -4.1
v 1.68 3 -4.1
v 1.68 3 -0.0999999
v 1.68 -3 -0.0999999

vn 0 0 1
vn 0 0 1
vn 0 0 1
vn 0 0 1
vn 0 1 0
vn 0 1 0
vn 0 0 -1
vn 0 0 -1
vn 0 1 0
vn 0 1 0
vn 0 0 -1
vn 0 0 -1
vn 0 -1 0
vn 0 -1 0
vn 0 -1 0
vn 0 -1 0
vn 1 0 0
vn 1 0 0
vn 1 0 0
vn 1 0 0
vn -1 0 0
vn -1 0 0
vn -1 0 0
vn -1 0 0

vt 0 0
vt 1 0
vt 0 1
vt 1 1
vt 0 1
vt 1 1
vt 0 1
vt 1 1
vt 0 0
vt 1 0
vt 0 0
vt 1 0
vt 0 0
vt 0 1
vt 1 1
vt 1 0
vt 0 0
vt 0 1
vt 1 1
vt 1 0
vt 0 0
vt 0 1
vt 1 1
vt 1 0

usemtl Lit
usemap Lit
f 507/507/507 505/505/505 508/508/508
f 508/508/508 505/505/505 506/506/506
f 509/509/509 513/513/513 510/510/510
f 510/510/510 513/513/513 514/514/514
f 511/511/511 515/515/515 512/512/512
f 512/512/512 515/515/515 516/516/516
f 518/518/518 517/517/517 519/519/519
f 519/519/519 517/517/517 520/520/520
f 522/522/522 521/521/521 523/523/523
f 523/523/523 521/521/521 524/524/524
f 526/526/526 525/525/525 527/527/527
f 527/527/527 525/525/525 528/528/528
mtllib ./Map2.mtl
g Ground
v -28.5 -2.220446E-16 25.1
v -23.5 -2.220446E-16 25.1
v -18.5 -2.220446E-16 25.1
v -13.5 -2.220446E-16 25.1
v -8.5 -2.220446E-16 25.1
v -3.5 -2.220446E-16 25.1
v 1.500001 -2.220446E-16 25.1
v 6.499999 -2.220446E-16 25.1
v 11.5 -2.220446E-16 25.1
v 16.5 -2.220446E-16 25.1
v 21.5 -2.220446E-16 25.1
v -28.5 -1.776357E-16 20.1
v -23.5 -1.776357E-16 20.1
v -18.5 -1.776357E-16 20.1
v -13.5 -1.776357E-16 20.1
v -8.5 -1.776357E-16 20.1
v -3.5 -1.776357E-16 20.1
v 1.500001 -1.776357E-16 20.1
v 6.499999 -1.776357E-16 20.1
v 11.5 -1.776357E-16 20.1
v 16.5 -1.776357E-16 20.1
v 21.5 -1.776357E-16 20.1
v -28.5 -1.332268E-16 15.1
v -23.5 -1.332268E-16 15.1
v -18.5 -1.332268E-16 15.1
v -13.5 -1.332268E-16 15.1
v -8.5 -1.332268E-16 15.1
v -3.5 -1.332268E-16 15.1
v 1.500001 -1.332268E-16 15.1
v 6.499999 -1.332268E-16 15.1
v 11.5 -1.332268E-16 15.1
v 16.5 -1.332268E-16 15.1
v 21.5 -1.332268E-16 15.1
v -28.5 -8.881784E-17 10.1
v -23.5 -8.881784E-17 10.1
v -18.5 -8.881784E-17 10.1
v -13.5 -8.881784E-17 10.1
v -8.5 -8.881784E-17 10.1
v -3.5 -8.881784E-17 10.1
v 1.500001 -8.881784E-17 10.1
v 6.499999 -8.881784E-17 10.1
v 11.5 -8.881784E-17 10.1
v 16.5 -8.881784E-17 10.1
v 21.5 -8.881784E-17 10.1
v -28.5 -4.440892E-17 5.099999
v -23.5 -4.440892E-17 5.099999
v -18.5 -4.440892E-17 5.099999
v -13.5 -4.440892E-17 5.099999
v -8.5 -4.440892E-17 5.099999
v -3.5 -4.440892E-17 5.099999
v 1.500001 -4.440892E-17 5.099999
v 6.499999 -4.440892E-17 5.099999
v 11.5 -4.440892E-17 5.099999
v 16.5 -4.440892E-17 5.099999
v 21.5 -4.440892E-17 5.099999
v -28.5 0 0.1
v -23.5 0 0.1
v -18.5 0 0.1
v -13.5 0 0.1
v -8.5 0 0.1
v -3.5 0 0.1
v 1.500001 0 0.1
v 6.499999 0 0.1
v 11.5 0 0.1
v 16.5 0 0.1
v 21.5 0 0.1
v -28.5 4.440893E-17 -4.900001
v -23.5 4.440893E-17 -4.900001
v -18.5 4.440893E-17 -4.900001
v -13.5 4.440893E-17 -4.900001
v -8.5 4.440893E-17 -4.900001
v -3.5 4.440893E-17 -4.900001
v 1.500001 4.440893E-17 -4.900001
v 6.499999 4.440893E-17 -4.900001
v 11.5 4.440893E-17 -4.900001
v 16.5 4.440893E-17 -4.900001
v 21.5 4.440893E-17 -4.900001
v -28.5 8.881784E-17 -9.899999
v -23.5 8.881784E-17 -9.899999
v -18.5 8.881784E-17 -9.899999
v -13.5 8.881784E-17 -9.899999
v -8.5 8.881784E-17 -9.899999
v -3.5 8.881784E-17 -9.899999
v 1.500001 8.881784E-17 -9.899999
v 6.499999 8.881784E-17 -9.899999
v 11.5 8.881784E-17 -9.899999
v 16.5 8.881784E-17 -9.899999
v 21.5 8.881784E-17 -9.899999
v -28.5 1.332268E-16 -14.9
v -23.5 1.332268E-16 -14.9
v -18.5 1.332268E-16 -14.9
v -13.5 1.332268E-16 -14.9
v -8.5 1.332268E-16 -14.9
v -3.5 1.332268E-16 -14.9
v 1.500001 1.332268E-16 -14.9
v 6.499999 1.332268E-16 -14.9
v 11.5 1.332268E-16 -14.9
v 16.5 1.332268E-16 -14.9
v 21.5 1.332268E-16 -14.9
v -28.5 1.776357E-16 -19.9
v -23.5 1.776357E-16 -19.9
v -18.5 1.776357E-16 -19.9
v -13.5 1.776357E-16 -19.9
v -8.5 1.776357E-16 -19.9
v -3.5 1.776357E-16 -19.9
v 1.500001 1.776357E-16 -19.9
v 6.499999 1.776357E-16 -19.9
v 11.5 1.776357E-16 -19.9
v 16.5 1.776357E-16 -19.9
v 21.5 1.776357E-16 -19.9
v -28.5 2.220446E-16 -24.9
v -23.5 2.220446E-16 -24.9
v -18.5 2.220446E-16 -24.9
v -13.5 2.220446E-16 -24.9
v -8.5 2.220446E-16 -24.9
v -3.5 2.220446E-16 -24.9
v 1.500001 2.220446E-16 -24.9
v 6.499999 2.220446E-16 -24.9
v 11.5 2.220446E-16 -24.9
v 16.5 2.220446E-16 -24.9
v 21.5 2.220446E-16 -24.9

vn 0 1 0
vn 0 1 0
vn 0 1 0
vn 0 1 0
vn 0 1 0
vn 0 1 0
vn 0 1 0
vn 0 1 0
vn 0 1 0
vn 0 1 0
vn 0 1 0
vn 0 1 0
vn 0 1 0
vn 0 1 0
vn 0 1 0
vn 0 1 0
vn 0 1 0
vn 0 1 0
vn 0 1 0
vn 0 1 0
vn 0 1 0
vn 0 1 0
vn 0 1 0
vn 0 1 0
vn 0 1 0
vn 0 1 0
vn 0 1 0
vn 0 1 0
vn 0 1 0
vn 0 1 0
vn 0 1 0
vn 0 1 0
vn 0 1 0
vn 0 1 0
vn 0 1 0
vn 0 1 0
vn 0 1 0
vn 0 1 0
vn 0 1 0
vn 0 1 0
vn 0 1 0
vn 0 1 0
vn 0 1 0
vn 0 1 0
vn 0 1 0
vn 0 1 0
vn 0 1 0
vn 0 1 0
vn 0 1 0
vn 0 1 0
vn 0 1 0
vn 0 1 0
vn 0 1 0
vn 0 1 0
vn 0 1 0
vn 0 1 0
vn 0 1 0
vn 0 1 0
vn 0 1 0
vn 0 1 0
vn 0 1 0
vn 0 1 0
vn 0 1 0
vn 0 1 0
vn 0 1 0
vn 0 1 0
vn 0 1 0
vn 0 1 0
vn 0 1 0
vn 0 1 0
vn 0 1 0
vn 0 1 0
vn 0 1 0
vn 0 1 0
vn 0 1 0
vn 0 1 0
vn 0 1 0
vn 0 1 0
vn 0 1 0
vn 0 1 0
vn 0 1 0
vn 0 1 0
vn 0 1 0
vn 0 1 0
vn 0 1 0
vn 0 1 0
vn 0 1 0
vn 0 1 0
vn 0 1 0
vn 0 1 0
vn 0 1 0
vn 0 1 0
vn 0 1 0
vn 0 1 0
vn 0 1 0
vn 0 1 0
vn 0 1 0
vn 0 1 0
vn 0 1 0
vn 0 1 0
vn 0 1 0
vn 0 1 0
vn 0 1 0
vn 0 1 0
vn 0 1 0
vn 0 1 0
vn 0 1 0
vn 0 1 0
vn 0 1 0
vn 0 1 0
vn 0 1 0
vn 0 1 0
vn 0 1 0
vn 0 1 0
vn 0 1 0
vn 0 1 0
vn 0 1 0
vn 0 1 0
vn 0 1 0
vn 0 1 0
vn 0 1 0

vt 0 0
vt 0.1 0
vt 0.2 0
vt 0.3 0
vt 0.4 0
vt 0.5 0
vt 0.6 0
vt 0.7 0
vt 0.8 0
vt 0.9 0
vt 1 0
vt 0 0.1
vt 0.1 0.1
vt 0.2 0.1
vt 0.3 0.1
vt 0.4 0.1
vt 0.5 0.1
vt 0.6 0.1
vt 0.7 0.1
vt 0.8 0.1
vt 0.9 0.1
vt 1 0.1
vt 0 0.2
vt 0.1 0.2
vt 0.2 0.2
vt 0.3 0.2
vt 0.4 0.2
vt 0.5 0.2
vt 0.6 0.2
vt 0.7 0.2
vt 0.8 0.2
vt 0.9 0.2
vt 1 0.2
vt 0 0.3
vt 0.1 0.3
vt 0.2 0.3
vt 0.3 0.3
vt 0.4 0.3
vt 0.5 0.3
vt 0.6 0.3
vt 0.7 0.3
vt 0.8 0.3
vt 0.9 0.3
vt 1 0.3
vt 0 0.4
vt 0.1 0.4
vt 0.2 0.4
vt 0.3 0.4
vt 0.4 0.4
vt 0.5 0.4
vt 0.6 0.4
vt 0.7 0.4
vt 0.8 0.4
vt 0.9 0.4
vt 1 0.4
vt 0 0.5
vt 0.1 0.5
vt 0.2 0.5
vt 0.3 0.5
vt 0.4 0.5
vt 0.5 0.5
vt 0.6 0.5
vt 0.7 0.5
vt 0.8 0.5
vt 0.9 0.5
vt 1 0.5
vt 0 0.6
vt 0.1 0.6
vt 0.2 0.6
vt 0.3 0.6
vt 0.4 0.6
vt 0.5 0.6
vt 0.6 0.6
vt 0.7 0.6
vt 0.8 0.6
vt 0.9 0.6
vt 1 0.6
vt 0 0.7
vt 0.1 0.7
vt 0.2 0.7
vt 0.3 0.7
vt 0.4 0.7
vt 0.5 0.7
vt 0.6 0.7
vt 0.7 0.7
vt 0.8 0.7
vt 0.9 0.7
vt 1 0.7
vt 0 0.8
vt 0.1 0.8
vt 0.2 0.8
vt 0.3 0.8
vt 0.4 0.8
vt 0.5 0.8
vt 0.6 0.8
vt 0.7 0.8
vt 0.8 0.8
vt 0.9 0.8
vt 1 0.8
vt 0 0.9
vt 0.1 0.9
vt 0.2 0.9
vt 0.3 0.9
vt 0.4 0.9
vt 0.5 0.9
vt 0.6 0.9
vt 0.7 0.9
vt 0.8 0.9
vt 0.9 0.9
vt 1 0.9
vt 0 1
vt 0.1 1
vt 0.2 1
vt 0.3 1
vt 0.4 1
vt 0.5 1
vt 0.6 1
vt 0.7 1
vt 0.8 1
vt 0.9 1
vt 1 1

usemtl Urp
usemap Urp
f 550/550/550 538/538/538 539/539/539
f 549/549/549 538/538/538 550/550/550
f 549/549/549 537/537/537 538/538/538
f 561/561/561 549/549/549 550/550/550
f 548/548/548 537/537/537 549/549/549
f 548/548/548 536/536/536 537/537/537
f 560/560/560 549/549/549 561/561/561
f 560/560/560 548/548/548 549/549/549
f 572/572/572 560/560/560 561/561/561
f 547/547/547 536/536/536 548/548/548
f 547/547/547 535/535/535 536/536/536
f 559/559/559 548/548/548 560/560/560
f 559/559/559 547/547/547 548/548/548
f 571/571/571 560/560/560 572/572/572
f 571/571/571 559/559/559 560/560/560
f 583/583/583 571/571/571 572/572/572
f 546/546/546 535/535/535 547/547/547
f 546/546/546 534/534/534 535/535/535
f 558/558/558 547/547/547 559/559/559
f 558/558/558 546/546/546 547/547/547
f 570/570/570 559/559/559 571/571/571
f 570/570/570 558/558/558 559/559/559
f 582/582/582 571/571/571 583/583/583
f 582/582/582 570/570/570 571/571/571
f 594/594/594 582/582/582 583/583/583
f 545/545/545 534/534/534 546/546/546
f 545/545/545 533/533/533 534/534/534
f 557/557/557 546/546/546 558/558/558
f 557/557/557 545/545/545 546/546/546
f 569/569/569 558/558/558 570/570/570
f 569/569/569 557/557/557 558/558/558
f 581/581/581 570/570/570 582/582/582
f 581/581/581 569/569/569 570/570/570
f 593/593/593 582/582/582 594/594/594
f 593/593/593 581/581/581 582/582/582
f 605/605/605 593/593/593 594/594/594
f 544/544/544 533/533/533 545/545/545
f 544/544/544 532/532/532 533/533/533
f 556/556/556 545/545/545 557/557/557
f 556/556/556 544/544/544 545/545/545
f 568/568/568 557/557/557 569/569/569
f 568/568/568 556/556/556 557/557/557
f 580/580/580 569/569/569 581/581/581
f 580/580/580 568/568/568 569/569/569
f 592/592/592 581/581/581 593/593/593
f 592/592/592 580/580/580 581/581/581
f 604/604/604 593/593/593 605/605/605
f 604/604/604 592/592/592 593/593/593
f 616/616/616 604/604/604 605/605/605
f 543/543/543 532/532/532 544/544/544
f 543/543/543 531/531/531 532/532/532
f 555/555/555 544/544/544 556/556/556
f 555/555/555 543/543/543 544/544/544
f 567/567/567 556/556/556 568/568/568
f 567/567/567 555/555/555 556/556/556
f 579/579/579 568/568/568 580/580/580
f 579/579/579 567/567/567 568/568/568
f 591/591/591 580/580/580 592/592/592
f 591/591/591 579/579/579 580/580/580
f 603/603/603 592/592/592 604/604/604
f 603/603/603 591/591/591 592/592/592
f 615/615/615 604/604/604 616/616/616
f 615/615/615 603/603/603 604/604/604
f 627/627/627 615/615/615 616/616/616
f 626/626/626 615/615/615 627/627/627
f 638/638/638 626/626/626 627/627/627
f 614/614/614 603/603/603 615/615/615
f 626/626/626 614/614/614 615/615/615
f 602/602/602 591/591/591 603/603/603
f 614/614/614 602/602/602 603/603/603
f 590/590/590 579/579/579 591/591/591
f 602/602/602 590/590/590 591/591/591
f 578/578/578 567/567/567 579/579/579
f 590/590/590 578/578/578 579/579/579
f 637/637/637 626/626/626 638/638/638
f 649/649/649 637/637/637 638/638/638
f 648/648/648 637/637/637 649/649/649
f 625/625/625 614/614/614 626/626/626
f 637/637/637 625/625/625 626/626/626
f 648/648/648 636/636/636 637/637/637
f 636/636/636 625/625/625 637/637/637
f 647/647/647 636/636/636 648/648/648
f 613/613/613 602/602/602 614/614/614
f 625/625/625 613/613/613 614/614/614
f 601/601/601 590/590/590 602/602/602
f 613/613/613 601/601/601 602/602/602
f 636/636/636 624/624/624 625/625/625
f 624/624/624 613/613/613 625/625/625
f 647/647/647 635/635/635 636/636/636
f 635/635/635 624/624/624 636/636/636
f 646/646/646 635/635/635 647/647/647
f 624/624/624 612/612/612 613/613/613
f 612/612/612 601/601/601 613/613/613
f 601/601/601 589/589/589 590/590/590
f 589/589/589 578/578/578 590/590/590
f 635/635/635 623/623/623 624/624/624
f 623/623/623 612/612/612 624/624/624
f 646/646/646 634/634/634 635/635/635
f 634/634/634 623/623/623 635/635/635
f 645/645/645 634/634/634 646/646/646
f 612/612/612 600/600/600 601/601/601
f 600/600/600 589/589/589 601/601/601
f 623/623/623 611/611/611 612/612/612
f 611/611/611 600/600/600 612/612/612
f 634/634/634 622/622/622 623/623/623
f 622/622/622 611/611/611 623/623/623
f 645/645/645 633/633/633 634/634/634
f 633/633/633 622/622/622 634/634/634
f 644/644/644 633/633/633 645/645/645
f 644/644/644 632/632/632 633/633/633
f 643/643/643 632/632/632 644/644/644
f 633/633/633 621/621/621 622/622/622
f 632/632/632 621/621/621 633/633/633
f 622/622/622 610/610/610 611/611/611
f 621/621/621 610/610/610 622/622/622
f 611/611/611 599/599/599 600/600/600
f 610/610/610 599/599/599 611/611/611
f 600/600/600 588/588/588 589/589/589
f 599/599/599 588/588/588 600/600/600
f 643/643/643 631/631/631 632/632/632
f 642/642/642 631/631/631 643/643/643
f 632/632/632 620/620/620 621/621/621
f 631/631/631 620/620/620 632/632/632
f 621/621/621 609/609/609 610/610/610
f 620/620/620 609/609/609 621/621/621
f 610/610/610 598/598/598 599/599/599
f 609/609/609 598/598/598 610/610/610
f 642/642/642 630/630/630 631/631/631
f 641/641/641 630/630/630 642/642/642
f 631/631/631 619/619/619 620/620/620
f 630/630/630 619/619/619 631/631/631
f 620/620/620 608/608/608 609/609/609
f 619/619/619 608/608/608 620/620/620
f 641/641/641 629/629/629 630/630/630
f 640/640/640 629/629/629 641/641/641
f 630/630/630 618/618/618 619/619/619
f 629/629/629 618/618/618 630/630/630
f 640/640/640 628/628/628 629/629/629
f 639/639/639 628/628/628 640/640/640
f 628/628/628 617/617/617 629/629/629
f 629/629/629 617/617/617 618/618/618
f 617/617/617 606/606/606 618/618/618
f 618/618/618 607/607/607 619/619/619
f 618/618/618 606/606/606 607/607/607
f 619/619/619 607/607/607 608/608/608
f 606/606/606 595/595/595 607/607/607
f 607/607/607 595/595/595 596/596/596
f 607/607/607 596/596/596 608/608/608
f 595/595/595 584/584/584 596/596/596
f 608/608/608 596/596/596 597/597/597
f 608/608/608 597/597/597 609/609/609
f 609/609/609 597/597/597 598/598/598
f 596/596/596 584/584/584 585/585/585
f 596/596/596 585/585/585 597/597/597
f 584/584/584 573/573/573 585/585/585
f 597/597/597 586/586/586 598/598/598
f 597/597/597 585/585/585 586/586/586
f 585/585/585 573/573/573 574/574/574
f 585/585/585 574/574/574 586/586/586
f 573/573/573 562/562/562 574/574/574
f 598/598/598 586/586/586 587/587/587
f 598/598/598 587/587/587 599/599/599
f 599/599/599 587/587/587 588/588/588
f 574/574/574 562/562/562 563/563/563
f 562/562/562 551/551/551 563/563/563
f 586/586/586 574/574/574 575/575/575
f 586/586/586 575/575/575 587/587/587
f 574/574/574 563/563/563 575/575/575
f 587/587/587 576/576/576 588/588/588
f 587/587/587 575/575/575 576/576/576
f 563/563/563 551/551/551 552/552/552
f 551/551/551 540/540/540 552/552/552
f 575/575/575 563/563/563 564/564/564
f 575/575/575 564/564/564 576/576/576
f 563/563/563 552/552/552 564/564/564
f 588/588/588 576/576/576 577/577/577
f 588/588/588 577/577/577 589/589/589
f 589/589/589 577/577/577 578/578/578
f 552/552/552 540/540/540 541/541/541
f 540/540/540 529/529/529 541/541/541
f 541/541/541 529/529/529 530/530/530
f 564/564/564 552/552/552 553/553/553
f 552/552/552 541/541/541 553/553/553
f 576/576/576 564/564/564 565/565/565
f 576/576/576 565/565/565 577/577/577
f 564/564/564 553/553/553 565/565/565
f 577/577/577 566/566/566 578/578/578
f 577/577/577 565/565/565 566/566/566
f 578/578/578 566/566/566 567/567/567
f 566/566/566 555/555/555 567/567/567
f 541/541/541 530/530/530 542/542/542
f 553/553/553 541/541/541 542/542/542
f 542/542/542 530/530/530 531/531/531
f 542/542/542 531/531/531 543/543/543
f 565/565/565 553/553/553 554/554/554
f 565/565/565 554/554/554 566/566/566
f 566/566/566 554/554/554 555/555/555
f 553/553/553 542/542/542 554/554/554
f 554/554/554 542/542/542 543/543/543
f 554/554/554 543/543/543 555/555/555
mtllib ./Map2.mtl
g Cube (6)
v -1.64 -3 8.8
v -0.64 -3 8.8
v -1.64 3 8.8
v -0.64 3 8.8
v -1.64 3 4.8
v -0.64 3 4.8
v -1.64 -3 4.8
v -0.64 -3 4.8
v -1.64 3 8.8
v -0.64 3 8.8
v -1.64 3 4.8
v -0.64 3 4.8
v -1.64 -3 4.8
v -1.64 -3 8.8
v -0.64 -3 8.8
v -0.64 -3 4.8
v -0.64 -3 8.8
v -0.64 3 8.8
v -0.64 3 4.8
v -0.64 -3 4.8
v -1.64 -3 4.8
v -1.64 3 4.8
v -1.64 3 8.8
v -1.64 -3 8.8

vn 0 0 1
vn 0 0 1
vn 0 0 1
vn 0 0 1
vn 0 1 0
vn 0 1 0
vn 0 0 -1
vn 0 0 -1
vn 0 1 0
vn 0 1 0
vn 0 0 -1
vn 0 0 -1
vn 0 -1 0
vn 0 -1 0
vn 0 -1 0
vn 0 -1 0
vn 1 0 0
vn 1 0 0
vn 1 0 0
vn 1 0 0
vn -1 0 0
vn -1 0 0
vn -1 0 0
vn -1 0 0

vt 0 0
vt 1 0
vt 0 1
vt 1 1
vt 0 1
vt 1 1
vt 0 1
vt 1 1
vt 0 0
vt 1 0
vt 0 0
vt 1 0
vt 0 0
vt 0 1
vt 1 1
vt 1 0
vt 0 0
vt 0 1
vt 1 1
vt 1 0
vt 0 0
vt 0 1
vt 1 1
vt 1 0

usemtl Lit
usemap Lit
f 652/652/652 650/650/650 653/653/653
f 653/653/653 650/650/650 651/651/651
f 654/654/654 658/658/658 655/655/655
f 655/655/655 658/658/658 659/659/659
f 656/656/656 660/660/660 657/657/657
f 657/657/657 660/660/660 661/661/661
f 663/663/663 662/662/662 664/664/664
f 664/664/664 662/662/662 665/665/665
f 667/667/667 666/666/666 668/668/668
f 668/668/668 666/666/666 669/669/669
f 671/671/671 670/670/670 672/672/672
f 672/672/672 670/670/670 673/673/673
mtllib ./Map2.mtl
g Cube (2)
v 5.33 -3 9.25
v 6.33 -3 9.25
v 5.33 3 9.25
v 6.33 3 9.25
v 5.33 3 6.25
v 6.33 3 6.25
v 5.33 -3 6.25
v 6.33 -3 6.25
v 5.33 3 9.25
v 6.33 3 9.25
v 5.33 3 6.25
v 6.33 3 6.25
v 5.33 -3 6.25
v 5.33 -3 9.25
v 6.33 -3 9.25
v 6.33 -3 6.25
v 6.33 -3 9.25
v 6.33 3 9.25
v 6.33 3 6.25
v 6.33 -3 6.25
v 5.33 -3 6.25
v 5.33 3 6.25
v 5.33 3 9.25
v 5.33 -3 9.25

vn 0 0 1
vn 0 0 1
vn 0 0 1
vn 0 0 1
vn 0 1 0
vn 0 1 0
vn 0 0 -1
vn 0 0 -1
vn 0 1 0
vn 0 1 0
vn 0 0 -1
vn 0 0 -1
vn 0 -1 0
vn 0 -1 0
vn 0 -1 0
vn 0 -1 0
vn 1 0 0
vn 1 0 0
vn 1 0 0
vn 1 0 0
vn -1 0 0
vn -1 0 0
vn -1 0 0
vn -1 0 0

vt 0 0
vt 1 0
vt 0 1
vt 1 1
vt 0 1
vt 1 1
vt 0 1
vt 1 1
vt 0 0
vt 1 0
vt 0 0
vt 1 0
vt 0 0
vt 0 1
vt 1 1
vt 1 0
vt 0 0
vt 0 1
vt 1 1
vt 1 0
vt 0 0
vt 0 1
vt 1 1
vt 1 0

usemtl Lit
usemap Lit
f 676/676/676 674/674/674 677/677/677
f 677/677/677 674/674/674 675/675/675
f 678/678/678 682/682/682 679/679/679
f 679/679/679 682/682/682 683/683/683
f 680/680/680 684/684/684 681/681/681
f 681/681/681 684/684/684 685/685/685
f 687/687/687 686/686/686 688/688/688
f 688/688/688 686/686/686 689/689/689
f 691/691/691 690/690/690 692/692/692
f 692/692/692 690/690/690 693/693/693
f 695/695/695 694/694/694 696/696/696
f 696/696/696 694/694/694 697/697/697
mtllib ./Map2.mtl
g Cube (15)
v -3.12 -3 4.37
v -0.12 -3 4.37
v -3.12 3 4.37
v -0.12 3 4.37
v -3.12 3 3.37
v -0.12 3 3.37
v -3.12 -3 3.37
v -0.12 -3 3.37
v -3.12 3 4.37
v -0.12 3 4.37
v -3.12 3 3.37
v -0.12 3 3.37
v -3.12 -3 3.37
v -3.12 -3 4.37
v -0.12 -3 4.37
v -0.12 -3 3.37
v -0.12 -3 4.37
v -0.12 3 4.37
v -0.12 3 3.37
v -0.12 -3 3.37
v -3.12 -3 3.37
v -3.12 3 3.37
v -3.12 3 4.37
v -3.12 -3 4.37

vn 0 0 1
vn 0 0 1
vn 0 0 1
vn 0 0 1
vn 0 1 0
vn 0 1 0
vn 0 0 -1
vn 0 0 -1
vn 0 1 0
vn 0 1 0
vn 0 0 -1
vn 0 0 -1
vn 0 -1 0
vn 0 -1 0
vn 0 -1 0
vn 0 -1 0
vn 1 0 0
vn 1 0 0
vn 1 0 0
vn 1 0 0
vn -1 0 0
vn -1 0 0
vn -1 0 0
vn -1 0 0

vt 0 0
vt 1 0
vt 0 1
vt 1 1
vt 0 1
vt 1 1
vt 0 1
vt 1 1
vt 0 0
vt 1 0
vt 0 0
vt 1 0
vt 0 0
vt 0 1
vt 1 1
vt 1 0
vt 0 0
vt 0 1
vt 1 1
vt 1 0
vt 0 0
vt 0 1
vt 1 1
vt 1 0

usemtl Lit
usemap Lit
f 700/700/700 698/698/698 701/701/701
f 701/701/701 698/698/698 699/699/699
f 702/702/702 706/706/706 703/703/703
f 703/703/703 706/706/706 707/707/707
f 704/704/704 708/708/708 705/705/705
f 705/705/705 708/708/708 709/709/709
f 711/711/711 710/710/710 712/712/712
f 712/712/712 710/710/710 713/713/713
f 715/715/715 714/714/714 716/716/716
f 716/716/716 714/714/714 717/717/717
f 719/719/719 718/718/718 720/720/720
f 720/720/720 718/718/718 721/721/721
mtllib ./Map2.mtl
g Cube (17)
v -8.742376 -3 4.026233
v -5.812359 -3 4.670439
v -8.742376 3 4.026233
v -5.812359 3 4.670439
v -8.527641 3 3.049561
v -5.597624 3 3.693767
v -8.527641 -3 3.049561
v -5.597624 -3 3.693767
v -8.742376 3 4.026233
v -5.812359 3 4.670439
v -8.527641 3 3.049561
v -5.597624 3 3.693767
v -8.527641 -3 3.049561
v -8.742376 -3 4.026233
v -5.812359 -3 4.670439
v -5.597624 -3 3.693767
v -5.812359 -3 4.670439
v -5.812359 3 4.670439
v -5.597624 3 3.693767
v -5.597624 -3 3.693767
v -8.527641 -3 3.049561
v -8.527641 3 3.049561
v -8.742376 3 4.026233
v -8.742376 -3 4.026233

vn -0.2147354 0 0.9766723
vn -0.2147354 0 0.9766723
vn -0.2147354 0 0.9766723
vn -0.2147354 0 0.9766723
vn 0 1 0
vn 0 1 0
vn 0.2147354 0 -0.9766723
vn 0.2147354 0 -0.9766723
vn 0 1 0
vn 0 1 0
vn 0.2147354 0 -0.9766723
vn 0.2147354 0 -0.9766723
vn 0 -1 0
vn 0 -1 0
vn 0 -1 0
vn 0 -1 0
vn 0.9766723 0 0.2147354
vn 0.9766723 0 0.2147354
vn 0.9766723 0 0.2147354
vn 0.9766723 0 0.2147354
vn -0.9766723 0 -0.2147354
vn -0.9766723 0 -0.2147354
vn -0.9766723 0 -0.2147354
vn -0.9766723 0 -0.2147354

vt 0 0
vt 1 0
vt 0 1
vt 1 1
vt 0 1
vt 1 1
vt 0 1
vt 1 1
vt 0 0
vt 1 0
vt 0 0
vt 1 0
vt 0 0
vt 0 1
vt 1 1
vt 1 0
vt 0 0
vt 0 1
vt 1 1
vt 1 0
vt 0 0
vt 0 1
vt 1 1
vt 1 0

usemtl Lit
usemap Lit
f 724/724/724 722/722/722 725/725/725
f 725/725/725 722/722/722 723/723/723
f 726/726/726 730/730/730 727/727/727
f 727/727/727 730/730/730 731/731/731
f 728/728/728 732/732/732 729/729/729
f 729/729/729 732/732/732 733/733/733
f 735/735/735 734/734/734 736/736/736
f 736/736/736 734/734/734 737/737/737
f 739/739/739 738/738/738 740/740/740
f 740/740/740 738/738/738 741/741/741
f 743/743/743 742/742/742 744/744/744
f 744/744/744 742/742/742 745/745/745
mtllib ./Map2.mtl
g Cube (24)
v -4.834456 -3 1.355203
v -3.033903 -3 -0.7890931
v -4.834456 3 1.355203
v -3.033903 3 -0.7890931
v -6.366096 3 0.06909305
v -4.565543 3 -2.075203
v -6.366096 -3 0.06909305
v -4.565543 -3 -2.075203
v -4.834456 3 1.355203
v -3.033903 3 -0.7890931
v -6.366096 3 0.06909305
v -4.565543 3 -2.075203
v -6.366096 -3 0.06909305
v -4.834456 -3 1.355203
v -3.033903 -3 -0.7890931
v -4.565543 -3 -2.075203
v -3.033903 -3 -0.7890931
v -3.033903 3 -0.7890931
v -4.565543 3 -2.075203
v -4.565543 -3 -2.075203
v -6.366096 -3 0.06909305
v -6.366096 3 0.06909305
v -4.834456 3 1.355203
v -4.834456 -3 1.355203

vn 0.76582 0 0.6430549
vn 0.76582 0 0.6430549
vn 0.76582 0 0.6430549
vn 0.76582 0 0.6430549
vn 0 1 0
vn 0 1 0
vn -0.76582 0 -0.6430549
vn -0.76582 0 -0.6430549
vn 0 1 0
vn 0 1 0
vn -0.76582 0 -0.6430549
vn -0.76582 0 -0.6430549
vn 0 -1 0
vn 0 -1 0
vn 0 -1 0
vn 0 -1 0
vn 0.6430549 0 -0.76582
vn 0.6430549 0 -0.76582
vn 0.6430549 0 -0.76582
vn 0.6430549 0 -0.76582
vn -0.6430549 0 0.76582
vn -0.6430549 0 0.76582
vn -0.6430549 0 0.76582
vn -0.6430549 0 0.76582

vt 0 0
vt 1 0
vt 0 1
vt 1 1
vt 0 1
vt 1 1
vt 0 1
vt 1 1
vt 0 0
vt 1 0
vt 0 0
vt 1 0
vt 0 0
vt 0 1
vt 1 1
vt 1 0
vt 0 0
vt 0 1
vt 1 1
vt 1 0
vt 0 0
vt 0 1
vt 1 1
vt 1 0

usemtl Lit
usemap Lit
f 748/748/748 746/746/746 749/749/749
f 749/749/749 746/746/746 747/747/747
f 750/750/750 754/754/754 751/751/751
f 751/751/751 754/754/754 755/755/755
f 752/752/752 756/756/756 753/753/753
f 753/753/753 756/756/756 757/757/757
f 759/759/759 758/758/758 760/760/760
f 760/760/760 758/758/758 761/761/761
f 763/763/763 762/762/762 764/764/764
f 764/764/764 762/762/762 765/765/765
f 767/767/767 766/766/766 768/768/768
f 768/768/768 766/766/766 769/769/769
mtllib ./Map2.mtl
g Cube (13)
v 1.91 -3 0.63
v 2.91 -3 0.63
v 1.91 3 0.63
v 2.91 3 0.63
v 1.91 3 -0.37
v 2.91 3 -0.37
v 1.91 -3 -0.37
v 2.91 -3 -0.37
v 1.91 3 0.63
v 2.91 3 0.63
v 1.91 3 -0.37
v 2.91 3 -0.37
v 1.91 -3 -0.37
v 1.91 -3 0.63
v 2.91 -3 0.63
v 2.91 -3 -0.37
v 2.91 -3 0.63
v 2.91 3 0.63
v 2.91 3 -0.37
v 2.91 -3 -0.37
v 1.91 -3 -0.37
v 1.91 3 -0.37
v 1.91 3 0.63
v 1.91 -3 0.63

vn 0 0 1
vn 0 0 1
vn 0 0 1
vn 0 0 1
vn 0 1 0
vn 0 1 0
vn 0 0 -1
vn 0 0 -1
vn 0 1 0
vn 0 1 0
vn 0 0 -1
vn 0 0 -1
vn 0 -1 0
vn 0 -1 0
vn 0 -1 0
vn 0 -1 0
vn 1 0 0
vn 1 0 0
vn 1 0 0
vn 1 0 0
vn -1 0 0
vn -1 0 0
vn -1 0 0
vn -1 0 0

vt 0 0
vt 1 0
vt 0 1
vt 1 1
vt 0 1
vt 1 1
vt 0 1
vt 1 1
vt 0 0
vt 1 0
vt 0 0
vt 1 0
vt 0 0
vt 0 1
vt 1 1
vt 1 0
vt 0 0
vt 0 1
vt 1 1
vt 1 0
vt 0 0
vt 0 1
vt 1 1
vt 1 0

usemtl Lit
usemap Lit
f 772/772/772 770/770/770 773/773/773
f 773/773/773 770/770/770 771/771/771
f 774/774/774 778/778/778 775/775/775
f 775/775/775 778/778/778 779/779/779
f 776/776/776 780/780/780 777/777/777
f 777/777/777 780/780/780 781/781/781
f 783/783/783 782/782/782 784/784/784
f 784/784/784 782/782/782 785/785/785
f 787/787/787 786/786/786 788/788/788
f 788/788/788 786/786/786 789/789/789
f 791/791/791 790/790/790 792/792/792
f 792/792/792 790/790/790 793/793/793
mtllib ./Map2.mtl
g Cube (25)
v -6.15 -3 -1.87
v -4.15 -3 -1.87
v -6.15 3 -1.87
v -4.15 3 -1.87
v -6.15 3 -3.87
v -4.15 3 -3.87
v -6.15 -3 -3.87
v -4.15 -3 -3.87
v -6.15 3 -1.87
v -4.15 3 -1.87
v -6.15 3 -3.87
v -4.15 3 -3.87
v -6.15 -3 -3.87
v -6.15 -3 -1.87
v -4.15 -3 -1.87
v -4.15 -3 -3.87
v -4.15 -3 -1.87
v -4.15 3 -1.87
v -4.15 3 -3.87
v -4.15 -3 -3.87
v -6.15 -3 -3.87
v -6.15 3 -3.87
v -6.15 3 -1.87
v -6.15 -3 -1.87

vn 0 0 1
vn 0 0 1
vn 0 0 1
vn 0 0 1
vn 0 1 0
vn 0 1 0
vn 0 0 -1
vn 0 0 -1
vn 0 1 0
vn 0 1 0
vn 0 0 -1
vn 0 0 -1
vn 0 -1 0
vn 0 -1 0
vn 0 -1 0
vn 0 -1 0
vn 1 0 0
vn 1 0 0
vn 1 0 0
vn 1 0 0
vn -1 0 0
vn -1 0 0
vn -1 0 0
vn -1 0 0

vt 0 0
vt 1 0
vt 0 1
vt 1 1
vt 0 1
vt 1 1
vt 0 1
vt 1 1
vt 0 0
vt 1 0
vt 0 0
vt 1 0
vt 0 0
vt 0 1
vt 1 1
vt 1 0
vt 0 0
vt 0 1
vt 1 1
vt 1 0
vt 0 0
vt 0 1
vt 1 1
vt 1 0

usemtl Lit
usemap Lit
f 796/796/796 794/794/794 797/797/797
f 797/797/797 794/794/794 795/795/795
f 798/798/798 802/802/802 799/799/799
f 799/799/799 802/802/802 803/803/803
f 800/800/800 804/804/804 801/801/801
f 801/801/801 804/804/804 805/805/805
f 807/807/807 806/806/806 808/808/808
f 808/808/808 806/806/806 809/809/809
f 811/811/811 810/810/810 812/812/812
f 812/812/812 810/810/810 813/813/813
f 815/815/815 814/814/814 816/816/816
f 816/816/816 814/814/814 817/817/817
mtllib ./Map2.mtl
g Cube (5)
v -1.63 -3 9.89
v 0.37 -3 9.89
v -1.63 3 9.89
v 0.37 3 9.89
v -1.63 3 7.89
v 0.37 3 7.89
v -1.63 -3 7.89
v 0.37 -3 7.89
v -1.63 3 9.89
v 0.37 3 9.89
v -1.63 3 7.89
v 0.37 3 7.89
v -1.63 -3 7.89
v -1.63 -3 9.89
v 0.37 -3 9.89
v 0.37 -3 7.89
v 0.37 -3 9.89
v 0.37 3 9.89
v 0.37 3 7.89
v 0.37 -3 7.89
v -1.63 -3 7.89
v -1.63 3 7.89
v -1.63 3 9.89
v -1.63 -3 9.89

vn 0 0 1
vn 0 0 1
vn 0 0 1
vn 0 0 1
vn 0 1 0
vn 0 1 0
vn 0 0 -1
vn 0 0 -1
vn 0 1 0
vn 0 1 0
vn 0 0 -1
vn 0 0 -1
vn 0 -1 0
vn 0 -1 0
vn 0 -1 0
vn 0 -1 0
vn 1 0 0
vn 1 0 0
vn 1 0 0
vn 1 0 0
vn -1 0 0
vn -1 0 0
vn -1 0 0
vn -1 0 0

vt 0 0
vt 1 0
vt 0 1
vt 1 1
vt 0 1
vt 1 1
vt 0 1
vt 1 1
vt 0 0
vt 1 0
vt 0 0
vt 1 0
vt 0 0
vt 0 1
vt 1 1
vt 1 0
vt 0 0
vt 0 1
vt 1 1
vt 1 0
vt 0 0
vt 0 1
vt 1 1
vt 1 0

usemtl Lit
usemap Lit
f 820/820/820 818/818/818 821/821/821
f 821/821/821 818/818/818 819/819/819
f 822/822/822 826/826/826 823/823/823
f 823/823/823 826/826/826 827/827/827
f 824/824/824 828/828/828 825/825/825
f 825/825/825 828/828/828 829/829/829
f 831/831/831 830/830/830 832/832/832
f 832/832/832 830/830/830 833/833/833
f 835/835/835 834/834/834 836/836/836
f 836/836/836 834/834/834 837/837/837
f 839/839/839 838/838/838 840/840/840
f 840/840/840 838/838/838 841/841/841
mtllib ./Map2.mtl
g Cube (28)
v 2.436363 -3 -3.747052
v 3.038178 -3 -4.545687
v 2.436363 3 -3.747052
v 3.038178 3 -4.545687
v -0.7581784 3 -6.154313
v -0.1563631 3 -6.952948
v -0.7581784 -3 -6.154313
v -0.1563631 -3 -6.952948
v 2.436363 3 -3.747052
v 3.038178 3 -4.545687
v -0.7581784 3 -6.154313
v -0.1563631 3 -6.952948
v -0.7581784 -3 -6.154313
v 2.436363 -3 -3.747052
v 3.038178 -3 -4.545687
v -0.1563631 -3 -6.952948
v 3.038178 -3 -4.545687
v 3.038178 3 -4.545687
v -0.1563631 3 -6.952948
v -0.1563631 -3 -6.952948
v -0.7581784 -3 -6.154313
v -0.7581784 3 -6.154313
v 2.436363 3 -3.747052
v 2.436363 -3 -3.747052

vn 0.7986354 0 0.6018152
vn 0.7986354 0 0.6018152
vn 0.7986354 0 0.6018152
vn 0.7986354 0 0.6018152
vn 0 1 0
vn 0 1 0
vn -0.7986354 0 -0.6018152
vn -0.7986354 0 -0.6018152
vn 0 1 0
vn 0 1 0
vn -0.7986354 0 -0.6018152
vn -0.7986354 0 -0.6018152
vn 0 -1 0
vn 0 -1 0
vn 0 -1 0
vn 0 -1 0
vn 0.6018152 0 -0.7986354
vn 0.6018152 0 -0.7986354
vn 0.6018152 0 -0.7986354
vn 0.6018152 0 -0.7986354
vn -0.6018152 0 0.7986354
vn -0.6018152 0 0.7986354
vn -0.6018152 0 0.7986354
vn -0.6018152 0 0.7986354

vt 0 0
vt 1 0
vt 0 1
vt 1 1
vt 0 1
vt 1 1
vt 0 1
vt 1 1
vt 0 0
vt 1 0
vt 0 0
vt 1 0
vt 0 0
vt 0 1
vt 1 1
vt 1 0
vt 0 0
vt 0 1
vt 1 1
vt 1 0
vt 0 0
vt 0 1
vt 1 1
vt 1 0

usemtl Lit
usemap Lit
f 844/844/844 842/842/842 845/845/845
f 845/845/845 842/842/842 843/843/843
f 846/846/846 850/850/850 847/847/847
f 847/847/847 850/850/850 851/851/851
f 848/848/848 852/852/852 849/849/849
f 849/849/849 852/852/852 853/853/853
f 855/855/855 854/854/854 856/856/856
f 856/856/856 854/854/854 857/857/857
f 859/859/859 858/858/858 860/860/860
f 860/860/860 858/858/858 861/861/861
f 863/863/863 862/862/862 864/864/864
f 864/864/864 862/862/862 865/865/865
